<?xml version="1.0" encoding="UTF-8" standalone="no"?>
<!-- Created with Inkscape (http://www.inkscape.org/) -->

<svg
   xmlns:dc="http://purl.org/dc/elements/1.1/"
   xmlns:cc="http://creativecommons.org/ns#"
   xmlns:rdf="http://www.w3.org/1999/02/22-rdf-syntax-ns#"
   xmlns:svg="http://www.w3.org/2000/svg"
   xmlns="http://www.w3.org/2000/svg"
   xmlns:xlink="http://www.w3.org/1999/xlink"
   xmlns:sodipodi="http://sodipodi.sourceforge.net/DTD/sodipodi-0.dtd"
   xmlns:inkscape="http://www.inkscape.org/namespaces/inkscape"
   width="1000"
   height="1000"
   viewBox="0 0 264.58333 264.58334"
   version="1.1"
   id="svg8"
   inkscape:version="0.92.3 (2405546, 2018-03-11)"
   sodipodi:docname="petanikode-post.svg"
   inkscape:export-filename="/home/petanikode/ubuntu18.png"
   inkscape:export-xdpi="96"
   inkscape:export-ydpi="96">
  <defs
     id="defs2">
    <marker
       inkscape:stockid="TriangleOutM"
       orient="auto"
       refY="0.0"
       refX="0.0"
       id="marker3028"
       style="overflow:visible"
       inkscape:isstock="true">
      <path
         id="path3026"
         d="M 5.77,0.0 L -2.88,5.0 L -2.88,-5.0 L 5.77,0.0 z "
         style="fill-rule:evenodd;stroke:#6272a4;stroke-width:1pt;stroke-opacity:1;fill:#6272a4;fill-opacity:1"
         transform="scale(0.4)" />
    </marker>
    <marker
       inkscape:stockid="Arrow1Mend"
       orient="auto"
       refY="0.0"
       refX="0.0"
       id="Arrow1Mend"
       style="overflow:visible;"
       inkscape:isstock="true">
      <path
         id="path2005"
         d="M 0.0,0.0 L 5.0,-5.0 L -12.5,0.0 L 5.0,5.0 L 0.0,0.0 z "
         style="fill-rule:evenodd;stroke:#6272a4;stroke-width:1pt;stroke-opacity:1;fill:#6272a4;fill-opacity:1"
         transform="scale(0.4) rotate(180) translate(10,0)" />
    </marker>
    <inkscape:path-effect
       effect="spiro"
       id="path-effect999"
       is_visible="true" />
    <inkscape:path-effect
       effect="spiro"
       id="path-effect995"
       is_visible="true" />
    <inkscape:path-effect
       effect="spiro"
       id="path-effect991"
       is_visible="true" />
    <inkscape:path-effect
       effect="spiro"
       id="path-effect987"
       is_visible="true" />
    <inkscape:path-effect
       effect="spiro"
       id="path-effect983"
       is_visible="true" />
    <inkscape:path-effect
       effect="spiro"
       id="path-effect979"
       is_visible="true" />
    <inkscape:path-effect
       effect="spiro"
       id="path-effect975"
       is_visible="true" />
    <inkscape:path-effect
       effect="spiro"
       id="path-effect971"
       is_visible="true" />
    <inkscape:path-effect
       effect="spiro"
       id="path-effect967"
       is_visible="true" />
    <marker
       inkscape:isstock="true"
       style="overflow:visible"
       id="marker1232"
       refX="0.0"
       refY="0.0"
       orient="auto"
       inkscape:stockid="TriangleOutM">
      <path
         transform="scale(0.4)"
         style="fill-rule:evenodd;stroke:#55d400;stroke-width:1pt;stroke-opacity:1;fill:#55d400;fill-opacity:1"
         d="M 5.77,0.0 L -2.88,5.0 L -2.88,-5.0 L 5.77,0.0 z "
         id="path1230" />
    </marker>
    <inkscape:path-effect
       effect="spiro"
       id="path-effect1936"
       is_visible="true" />
    <inkscape:path-effect
       effect="spiro"
       id="path-effect1932"
       is_visible="true" />
    <inkscape:path-effect
       effect="spiro"
       id="path-effect1912"
       is_visible="true" />
    <inkscape:path-effect
       effect="spiro"
       id="path-effect1904"
       is_visible="true" />
    <inkscape:path-effect
       effect="spiro"
       id="path-effect1900"
       is_visible="true" />
    <clipPath
       clipPathUnits="userSpaceOnUse"
       id="clipPath20-3">
      <path
         inkscape:connector-curvature="0"
         d="m 0,10.012 h 1366.9 v 1110.9 H 0 Z"
         id="path18-6" />
    </clipPath>
    <clipPath
       id="clipPath4405-7"
       clipPathUnits="userSpaceOnUse">
      <path
         inkscape:connector-curvature="0"
         id="path4407-5"
         d="m 22.739,259.049 c 0,-129.493 104.975,-234.467 234.467,-234.467 v 0 c 129.493,0 234.468,104.974 234.468,234.467 v 0 c 0,129.493 -104.975,234.467 -234.468,234.467 v 0 C 127.714,493.516 22.739,388.542 22.739,259.049" />
    </clipPath>
    <linearGradient
       id="linearGradient4413"
       spreadMethod="pad"
       gradientTransform="matrix(0,-467.22317,-467.22317,0,257.2063,493.51587)"
       gradientUnits="userSpaceOnUse"
       y2="0"
       x2="1"
       y1="0"
       x1="0">
      <stop
         id="stop4415"
         offset="0"
         style="stop-opacity:1;stop-color:#42bce8" />
      <stop
         id="stop4417"
         offset="1"
         style="stop-opacity:1;stop-color:#23a7dc" />
    </linearGradient>
    <clipPath
       id="clipPath4425-6"
       clipPathUnits="userSpaceOnUse">
      <path
         inkscape:connector-curvature="0"
         id="path4427-2"
         d="M 0,512 H 512 V 0 H 0 Z" />
    </clipPath>
    <clipPath
       clipPathUnits="userSpaceOnUse"
       id="clipPath1283">
      <path
         style="fill:#808080;fill-rule:evenodd;stroke:#000000;stroke-width:0.26458332px;stroke-linecap:butt;stroke-linejoin:miter;stroke-opacity:1"
         d="m 94.479775,251.16326 55.725695,0.4009 3.57473,-0.20045 0.10023,-3.4411 -0.0167,-3.69166 0.44507,-17.72353 0.18898,-14.9773 0.18899,-8.92969 -0.80321,-2.69308 -0.18897,-10.81957 v -1.88988 l 0.47247,-0.0472 v -1.32292 l -1.65366,-3.63802 1.13393,-0.80319 1.32293,0.33072 1.13391,-0.0945 0.42523,-0.28348 0.23623,0.56696 0.56697,0.56697 5.76412,4.58296 -0.5197,-0.33073 -0.47248,1.55915 0.80319,2.07887 4.91371,7.41778 -2.92932,3.54353 1.88987,1.18117 3.02382,-1.03943 0.51971,0.18899 1.70089,2.22061 0.70871,-0.23624 1.13392,-1.55915 -0.0472,-0.99219 -0.61421,-1.84263 -4.15775,-11.81176 -0.66145,-0.0945 -0.23625,-0.85045 v -0.8032 l -7.51226,-8.40997 -0.0472,-1.88988 0.85045,-0.18899 0.0472,-0.33072 0.0945,-0.28349 -0.28349,-0.56696 -0.47247,-0.0945 0.18899,-7.41778 2.26786,0.0945 0.66145,-0.28349 1.13393,0.56697 0.12484,-0.27585 -0.58467,-0.36749 v -0.11693 l 1.67045,0.0501 0.30067,0.63477 h 0.91875 l 0.18374,1.08578 h 0.63477 l -0.0167,-0.98556 v -1.35305 l -0.10023,-1.5535 -0.16704,-0.16705 -0.46773,0.0835 v 0.95215 l -1.06907,0.0501 -0.11693,0.60135 -1.33635,0.0501 0.50113,-0.3842 -0.48443,-0.4176 -1.18601,0.53454 -0.50113,-0.21716 h -2.35531 l -0.56795,-0.95215 h -1.10248 l -0.51784,-0.86863 -2.72281,0.10023 0.0167,4.9946 -13.76438,0.26727 -3.09031,-0.11687 0.21716,-0.4009 0.7517,-0.16705 -0.0501,-0.45102 h -0.63475 l 0.0167,-0.51783 h 0.65147 l -0.0167,-0.7517 -1.70385,-0.0501 v 0.61806 l 0.55125,0.21716 -0.0835,0.63476 -1.40316,-0.0835 -0.13363,-2.55576 1.85419,-1.36976 1.13589,0.4009 -0.16705,-0.96885 0.7517,-0.50113 -0.23386,-0.43431 10.05601,-8.81989 0.20046,-0.66818 1.36975,-8.15172 1.70384,-0.26727 -0.13362,-0.70158 h -7.01584 l -7.38332,0.16704 -6.41446,0.13364 -14.86688,0.60135 -2.43882,0.30068 v 0.23386 l 1.57021,0.26727 1.73724,8.41899 10.65738,8.61944 -0.53454,0.46773 0.23386,0.43431 1.16931,0.0334 1.33635,1.13589 0.0334,0.46772 0.33409,0.13364 0.53454,-0.13364 0.53454,0.63477 -0.3341,0.20045 -0.0334,1.9043 -0.36749,0.16704 -0.4009,0.80181 0.10022,2.50565 -9.08716,0.3675 -0.13365,-5.17835 -7.78421,0.53454 -1.20272,2.10475 -0.0668,0.83521 0.23386,0.20046 0.33409,7.88445 0.20045,14.43255 0.30069,13.12962 -3.0736,0.16704 -1.20273,3.50791 -0.8018,0.0334 -1.1693,-0.4009 -1.87089,-0.13364 -1.73726,0.0334 -0.10021,-2.17156 -0.93545,-1.00226 -2.57247,-0.0668 -0.4009,-0.26727 -0.43431,0.33409 -4.042459,0.36749 -0.06682,1.9043 -0.300678,1.03567 0.133633,2.60587 -0.467719,1.5368 v 0.90204 l -1.536801,2.50565 -0.100227,1.03567 0.935445,0.50113 0.400902,-0.10023 0.467723,2.6727 0.267268,0.50113 -2.405425,0.93544 -0.801809,2.43884 -0.133633,1.80407 0.167042,8.15172 0.133636,1.57021 1.369756,0.70158 1.77066,0.63476 h 0.300678 l 0.03341,0.80181 0.801809,1.10249 -1.135896,2.83974 -2.305201,5.47902 z"
         id="path1285"
         inkscape:connector-curvature="0" />
    </clipPath>
    <clipPath
       clipPathUnits="userSpaceOnUse"
       id="clipPath16">
      <path
         inkscape:connector-curvature="0"
         d="M 0,38 H 38 V 0 H 0 Z"
         id="path18" />
    </clipPath>
    <marker
       inkscape:isstock="true"
       style="overflow:visible"
       id="marker6427"
       refX="0"
       refY="0"
       orient="auto"
       inkscape:stockid="TriangleOutM">
      <path
         inkscape:connector-curvature="0"
         transform="scale(0.4)"
         style="fill:#f8f8f2;fill-opacity:1;fill-rule:evenodd;stroke:#f8f8f2;stroke-width:1.00000003pt;stroke-opacity:1"
         d="M 5.77,0 -2.88,5 V -5 Z"
         id="path6425" />
    </marker>
    <marker
       inkscape:stockid="TriangleOutM"
       orient="auto"
       refY="0"
       refX="0"
       id="marker5895"
       style="overflow:visible"
       inkscape:isstock="true">
      <path
         inkscape:connector-curvature="0"
         id="path5893"
         d="M 5.77,0 -2.88,5 V -5 Z"
         style="fill:#f8f8f2;fill-opacity:1;fill-rule:evenodd;stroke:#f8f8f2;stroke-width:1.00000003pt;stroke-opacity:1"
         transform="scale(0.4)" />
    </marker>
    <marker
       inkscape:stockid="TriangleOutM"
       orient="auto"
       refY="0"
       refX="0"
       id="marker1768"
       style="overflow:visible"
       inkscape:isstock="true">
      <path
         inkscape:connector-curvature="0"
         id="path1766"
         d="M 5.77,0 -2.88,5 V -5 Z"
         style="fill:#f8f8f2;fill-opacity:1;fill-rule:evenodd;stroke:#f8f8f2;stroke-width:1.00000003pt;stroke-opacity:1"
         transform="scale(0.4)" />
    </marker>
    <clipPath
       clipPathUnits="userSpaceOnUse"
       id="clipPath20-3-3">
      <path
         inkscape:connector-curvature="0"
         d="m 0,10.012 h 1366.9 v 1110.9 H 0 Z"
         id="path18-6-6" />
    </clipPath>
    <clipPath
       id="clipPath4405-7-7"
       clipPathUnits="userSpaceOnUse">
      <path
         inkscape:connector-curvature="0"
         id="path4407-5-5"
         d="m 22.739,259.049 c 0,-129.493 104.975,-234.467 234.467,-234.467 v 0 c 129.493,0 234.468,104.974 234.468,234.467 v 0 c 0,129.493 -104.975,234.467 -234.468,234.467 v 0 C 127.714,493.516 22.739,388.542 22.739,259.049" />
    </clipPath>
    <clipPath
       id="clipPath4425-6-6"
       clipPathUnits="userSpaceOnUse">
      <path
         inkscape:connector-curvature="0"
         id="path4427-2-2"
         d="M 0,512 H 512 V 0 H 0 Z" />
    </clipPath>
    <linearGradient
       inkscape:collect="always"
       xlink:href="#linearGradient4413"
       id="linearGradient2048"
       gradientUnits="userSpaceOnUse"
       gradientTransform="matrix(0,-467.22317,-467.22317,0,257.2063,493.51587)"
       x1="0"
       y1="0"
       x2="1"
       y2="0"
       spreadMethod="pad" />
  </defs>
  <sodipodi:namedview
     id="base"
     pagecolor="#ffffff"
     bordercolor="#666666"
     borderopacity="1.0"
     inkscape:pageopacity="0.0"
     inkscape:pageshadow="2"
     inkscape:zoom="0.32"
     inkscape:cx="329.08286"
     inkscape:cy="380.96834"
     inkscape:document-units="px"
     inkscape:current-layer="layer1"
     showgrid="false"
     units="px"
     inkscape:window-width="1336"
     inkscape:window-height="739"
     inkscape:window-x="30"
     inkscape:window-y="0"
     inkscape:window-maximized="1"
     inkscape:snap-nodes="false" />
  <metadata
     id="metadata5">
    <rdf:RDF>
      <cc:Work
         rdf:about="">
        <dc:format>image/svg+xml</dc:format>
        <dc:type
           rdf:resource="http://purl.org/dc/dcmitype/StillImage" />
        <dc:title />
      </cc:Work>
    </rdf:RDF>
  </metadata>
  <g
     inkscape:groupmode="layer"
     id="layer3"
     inkscape:label="Layer 3"
     style="display:inline;opacity:1" />
  <g
     inkscape:label="Layer 1"
     inkscape:groupmode="layer"
     id="layer1"
     transform="translate(0,-32.41665)"
     style="display:inline;opacity:1">
    <text
       id="text1168"
       y="186.08546"
       x="487.14627"
       style="font-style:normal;font-weight:normal;font-size:7.86507463px;line-height:1.25;font-family:sans-serif;letter-spacing:0px;word-spacing:0px;fill:#ffffff;fill-opacity:1;stroke:none;stroke-width:0.19662686"
       xml:space="preserve"><tspan
         style="font-style:normal;font-variant:normal;font-weight:normal;font-stretch:normal;font-family:Purisa;-inkscape-font-specification:Purisa;fill:#ffffff;stroke-width:0.19662686"
         y="193.0442"
         x="487.14627"
         sodipodi:role="line"
         id="tspan1172" /></text>
    <g
       id="g5306"
       transform="translate(24.314778,38.226277)"
       inkscape:export-filename="/home/dian/ngoding-kok-copas.png"
       inkscape:export-xdpi="96"
       inkscape:export-ydpi="96">
      <g
         style="display:inline;opacity:1"
         inkscape:export-ydpi="96"
         inkscape:export-xdpi="96"
         inkscape:export-filename="/home/dian/dos1.png"
         transform="matrix(1.2571783,0,0,1.2571783,-25.75328,-48.656679)"
         id="g5290">
        <rect
           inkscape:export-filename="/home/petanikode/vim1.png"
           inkscape:export-ydpi="90"
           inkscape:export-xdpi="90"
           y="34.081921"
           x="1.14423"
           height="210.45808"
           width="210.45808"
           id="rect5230"
           style="opacity:1;fill:#263238;fill-opacity:1;stroke:none;stroke-width:0.56444448;stroke-linecap:butt;stroke-linejoin:miter;stroke-miterlimit:4;stroke-dasharray:none;stroke-dashoffset:0;stroke-opacity:1" />
        <rect
           style="opacity:1;fill:#008080;fill-opacity:1;stroke:none;stroke-width:0.56444448;stroke-linecap:butt;stroke-linejoin:miter;stroke-miterlimit:4;stroke-dasharray:none;stroke-dashoffset:0;stroke-opacity:1"
           id="rect5232"
           width="210.45808"
           height="15.057988"
           x="1.14423"
           y="229.48199"
           inkscape:export-xdpi="90"
           inkscape:export-ydpi="90"
           inkscape:export-filename="/home/petanikode/nol-ganjil-genap.png" />
        <g
           transform="matrix(0.20679685,0,0,0.20679685,63.650516,95.608437)"
           id="g5288">
          <g
             id="g5238"
             transform="matrix(0.8031135,0,0,0.8031135,277.47562,141.37081)">
            <text
               xml:space="preserve"
               style="font-style:normal;font-weight:normal;line-height:0%;font-family:sans-serif;letter-spacing:0px;word-spacing:0px;fill:#000000;fill-opacity:1;stroke:none;stroke-width:1px;stroke-linecap:butt;stroke-linejoin:miter;stroke-opacity:1"
               x="341.57898"
               y="683.60797"
               id="text5236"><tspan
                 sodipodi:role="line"
                 id="tspan5234"
                 x="341.57898"
                 y="683.60797"
                 style="font-style:normal;font-variant:normal;font-weight:500;font-stretch:normal;font-size:29.83540726px;line-height:1.25;font-family:Roboto;-inkscape-font-specification:'Roboto Medium';fill:#ffffff">@petanikode</tspan></text>
          </g>
          <g
             transform="matrix(0.06521036,0,0,-0.06521036,506.52618,700.20303)"
             inkscape:label="ink_ext_XXXXXX"
             id="g5248"
             style="fill:#ffffff">
            <g
               transform="scale(0.1)"
               id="g5246"
               style="fill:#ffffff">
              <path
                 inkscape:connector-curvature="0"
                 id="path5240"
                 style="fill:#ffffff;fill-opacity:1;fill-rule:nonzero;stroke:none"
                 d="m 2519.21,4584.5 c 672.65,0 752.33,-2.57 1017.97,-14.69 245.62,-11.2 379.01,-52.24 467.78,-86.74 117.59,-45.7 201.51,-100.29 289.66,-188.44 88.16,-88.16 142.75,-172.08 188.45,-289.67 34.5,-88.77 75.54,-222.16 86.75,-467.78 12.11,-265.64 14.68,-345.32 14.68,-1017.98 0,-672.65 -2.57,-752.33 -14.68,-1017.97 -11.21,-245.62 -52.25,-379.01 -86.75,-467.78 -45.7,-117.591 -100.29,-201.509 -188.44,-289.661 -88.16,-88.156 -172.08,-142.75 -289.67,-188.449 -88.77,-34.5 -222.16,-75.535 -467.78,-86.746 -265.61,-12.117 -345.27,-14.684 -1017.97,-14.684 -672.71,0 -752.37,2.567 -1017.98,14.684 -245.62,11.211 -379.01,52.246 -467.78,86.746 -117.591,45.699 -201.509,100.293 -289.661,188.445 -88.152,88.153 -142.75,172.074 -188.449,289.665 -34.5,88.77 -75.535,222.16 -86.742,467.78 -12.121,265.64 -14.688,345.32 -14.688,1017.97 0,672.66 2.567,752.34 14.688,1017.98 11.207,245.62 52.242,379.01 86.742,467.78 45.699,117.59 100.293,201.51 188.445,289.66 88.156,88.16 172.074,142.75 289.665,188.45 88.77,34.5 222.16,75.54 467.78,86.74 265.65,12.12 345.32,14.69 1017.98,14.69 m 0,453.91 c -684.18,0 -769.97,-2.9 -1038.67,-15.16 -268.15,-12.23 -451.27,-54.82 -611.513,-117.09 C 703.371,4841.78 562.875,4755.64 422.824,4615.59 282.773,4475.54 196.633,4335.04 132.254,4169.38 69.9766,4009.14 27.3906,3826.02 15.1563,3557.87 2.89844,3289.17 0,3203.38 0,2519.2 0,1835.03 2.89844,1749.24 15.1563,1480.54 27.3906,1212.39 69.9766,1029.27 132.254,869.027 196.633,703.371 282.773,562.875 422.824,422.824 562.875,282.773 703.371,196.633 869.027,132.254 1029.27,69.9766 1212.39,27.3906 1480.54,15.1563 1749.24,2.89453 1835.03,0 2519.21,0 c 684.17,0 769.96,2.89453 1038.66,15.1563 268.15,12.2343 451.27,54.8203 611.51,117.0977 165.66,64.379 306.16,150.519 446.21,290.57 140.05,140.051 226.19,280.543 290.57,446.203 62.27,160.243 104.86,343.363 117.09,611.513 12.26,268.7 15.16,354.49 15.16,1038.66 0,684.18 -2.9,769.97 -15.16,1038.67 -12.23,268.15 -54.82,451.27 -117.09,611.51 -64.38,165.66 -150.52,306.16 -290.57,446.21 -140.05,140.05 -280.55,226.19 -446.21,290.57 -160.24,62.27 -343.36,104.86 -611.51,117.09 -268.7,12.26 -354.49,15.16 -1038.66,15.16 v 0" />
              <path
                 inkscape:connector-curvature="0"
                 id="path5242"
                 style="fill:#ffffff;fill-opacity:1;fill-rule:nonzero;stroke:none"
                 d="m 2519.21,3812.85 c -714.46,0 -1293.65,-579.19 -1293.65,-1293.65 0,-714.46 579.19,-1293.64 1293.65,-1293.64 714.46,0 1293.64,579.18 1293.64,1293.64 0,714.46 -579.18,1293.65 -1293.64,1293.65 z m 0,-2133.38 c -463.78,0 -839.74,375.96 -839.74,839.73 0,463.78 375.96,839.74 839.74,839.74 463.77,0 839.73,-375.96 839.73,-839.74 0,-463.77 -375.96,-839.73 -839.73,-839.73" />
              <path
                 inkscape:connector-curvature="0"
                 id="path5244"
                 style="fill:#ffffff;fill-opacity:1;fill-rule:nonzero;stroke:none"
                 d="m 4166.27,3863.96 c 0,-166.96 -135.35,-302.3 -302.31,-302.3 -166.96,0 -302.3,135.34 -302.3,302.3 0,166.96 135.34,302.31 302.3,302.31 166.96,0 302.31,-135.35 302.31,-302.31" />
            </g>
          </g>
          <g
             transform="matrix(0.2903297,0,0,-0.2903297,411.10652,700.19164)"
             id="g5258">
            <g
               transform="scale(0.1)"
               id="g5256">
              <g
                 id="g5254">
                <g
                   clip-path="url(#clipPath20-3-3)"
                   id="g5252">
                  <path
                     d="m 1366.9,989.39 c -50.27,-22.309 -104.33,-37.387 -161.05,-44.18 57.89,34.723 102.34,89.679 123.28,155.15 -54.18,-32.15 -114.18,-55.47 -178.09,-68.04 -51.13,54.49 -124.02,88.55 -204.68,88.55 -154.89,0 -280.43,-125.55 -280.43,-280.43 0,-21.988 2.457,-43.398 7.258,-63.91 -233.08,11.68 -439.72,123.36 -578.04,293.01 -24.141,-41.4 -37.969,-89.567 -37.969,-140.97 0,-97.308 49.489,-183.13 124.76,-233.44 -45.969,1.437 -89.218,14.058 -127.03,35.078 -0.043,-1.18 -0.043,-2.348 -0.043,-3.52 0,-135.9 96.68,-249.22 224.96,-275 -23.512,-6.41 -48.281,-9.8 -73.86,-9.8 -18.089,0 -35.628,1.711 -52.781,5 35.711,-111.41 139.26,-192.5 262,-194.77 -96.058,-75.23 -216.96,-120.04 -348.36,-120.04 -22.621,0 -44.961,1.332 -66.918,3.91 124.16,-79.568 271.55,-125.98 429.94,-125.98 515.82,0 797.86,427.31 797.86,797.93 0,12.153 -0.28,24.223 -0.79,36.25 54.77,39.571 102.31,88.95 139.93,145.2"
                     id="path5250"
                     inkscape:connector-curvature="0"
                     style="fill:#55acee" />
                </g>
              </g>
            </g>
          </g>
          <g
             transform="matrix(0.07388832,0,0,-0.07388832,457.6591,702.9159)"
             inkscape:label="Telegram-logo"
             id="g5286">
            <g
               id="g5268">
              <g
                 clip-path="url(#clipPath4405-7-7)"
                 id="g5266">
                <g
                   id="g5264">
                  <g
                     id="g5262">
                    <path
                       inkscape:connector-curvature="0"
                       id="path5260"
                       style="fill:url(#linearGradient2048);stroke:none"
                       d="m 22.739,259.049 c 0,-129.493 104.975,-234.467 234.467,-234.467 v 0 c 129.493,0 234.468,104.974 234.468,234.467 v 0 c 0,129.493 -104.975,234.467 -234.468,234.467 v 0 C 127.714,493.516 22.739,388.542 22.739,259.049" />
                  </g>
                </g>
              </g>
            </g>
            <g
               id="g5284">
              <g
                 clip-path="url(#clipPath4425-6-6)"
                 id="g5282">
                <g
                   transform="translate(371.2939,358.6405)"
                   id="g5272">
                  <path
                     inkscape:connector-curvature="0"
                     id="path5270"
                     style="fill:#ffffff;fill-opacity:1;fill-rule:nonzero;stroke:none"
                     d="m 0,0 -41.878,-211.144 c 0,0 -5.857,-14.641 -21.963,-7.613 l -96.64,74.091 -35.142,16.984 -59.155,19.915 c 0,0 -9.078,3.221 -9.957,10.249 -0.878,7.028 10.25,10.836 10.25,10.836 L -19.328,5.565 C -19.328,5.565 0,14.057 0,0" />
                </g>
                <g
                   transform="translate(203.3848,149.8684)"
                   id="g5276">
                  <path
                     inkscape:connector-curvature="0"
                     id="path5274"
                     style="fill:#d2e5f1;fill-opacity:1;fill-rule:nonzero;stroke:none"
                     d="M 0,0 C 0,0 -2.821,0.264 -6.336,11.394 -9.85,22.521 -27.714,81.09 -27.714,81.09 l 142.032,90.198 c 0,0 8.199,4.978 7.907,0 0,0 1.464,-0.878 -2.928,-4.979 C 114.904,162.209 7.721,65.863 7.721,65.863" />
                </g>
                <g
                   transform="translate(247.8671,185.5662)"
                   id="g5280">
                  <path
                     inkscape:connector-curvature="0"
                     id="path5278"
                     style="fill:#b5cfe4;fill-opacity:1;fill-rule:nonzero;stroke:none"
                     d="m 0,0 -38.225,-34.852 c 0,0 -2.989,-2.266 -6.257,-0.846 l 7.319,64.736" />
                </g>
              </g>
            </g>
          </g>
        </g>
      </g>
      <g
         style="display:inline;opacity:1;fill:#ffffff"
         id="g5304"
         transform="matrix(0.59630879,0,0,0.59630879,-278.49157,-68.145489)">
        <text
           id="text5296"
           y="540.20154"
           x="439.39209"
           style="font-style:normal;font-weight:normal;font-size:16.18058205px;line-height:1.25;font-family:sans-serif;letter-spacing:0px;word-spacing:0px;fill:#ffffff;fill-opacity:1;stroke:none;stroke-width:0.40451452"
           xml:space="preserve"><tspan
             style="font-style:normal;font-variant:normal;font-weight:normal;font-stretch:normal;font-family:Atma;-inkscape-font-specification:Atma;fill:#ffffff;stroke-width:0.40451452"
             y="540.20154"
             x="439.39209"
             id="tspan5294"
             sodipodi:role="line"><tspan
               style="font-weight:bold;fill:#ffffff;stroke-width:0.40451452"
               id="tspan5292">k   de</tspan></tspan></text>
        <path
           style="fill:#ffffff;fill-opacity:1;stroke:none;stroke-width:0.86064708;stroke-miterlimit:4;stroke-dasharray:none;stroke-dashoffset:0"
           d="m 453.81687,530.32254 c -2.8122,0 -5.07601,2.26409 -5.07601,5.07628 0,2.8122 2.26381,5.07601 5.07601,5.07601 2.81219,0 5.07628,-2.26381 5.07628,-5.07601 0,-2.81219 -2.26409,-5.07628 -5.07628,-5.07628 z m 1.20807,2.44886 1.88557,4.11796 -6.18756,-2.85618 z m -2.73186,2.22993 3.21715,1.52487 -2.33707,1.42917 -0.41577,-1.19143 -0.41224,0.074 -0.03,-1.05374 z"
           id="path5298"
           inkscape:connector-curvature="0" />
        <text
           xml:space="preserve"
           style="font-style:normal;font-weight:normal;font-size:8.28168583px;line-height:1.25;font-family:sans-serif;letter-spacing:0px;word-spacing:0px;fill:#ffffff;fill-opacity:1;stroke:none;stroke-width:0.20704219"
           x="444.74136"
           y="529.14606"
           id="text5302"><tspan
             sodipodi:role="line"
             id="tspan5300"
             x="444.74136"
             y="529.14606"
             style="font-style:normal;font-variant:normal;font-weight:normal;font-stretch:normal;font-family:'Caveat Brush';-inkscape-font-specification:'Caveat Brush';fill:#ffffff;stroke-width:0.20704219">Petani</tspan></text>
      </g>
    </g>
    <text
       xml:space="preserve"
       style="font-style:normal;font-weight:normal;font-size:10.58333302px;line-height:1.25;font-family:sans-serif;letter-spacing:0px;word-spacing:0px;fill:#ffffff;fill-opacity:1;stroke:none;stroke-width:0.26458332"
       x="104.38639"
       y="168.6254"
       id="text1056"><tspan
         sodipodi:role="line"
         id="tspan1054"
         x="104.38639"
         y="168.6254"
         style="font-style:normal;font-variant:normal;font-weight:normal;font-stretch:normal;font-family:Roboto;-inkscape-font-specification:Roboto;fill:#ffffff;stroke-width:0.26458332">Foo bar baz</tspan></text>
    <flowRoot
       xml:space="preserve"
       id="flowRoot1026"
       style="font-style:normal;font-weight:normal;font-size:40px;line-height:1.25;font-family:sans-serif;letter-spacing:0px;word-spacing:0px;fill:#ffffff;fill-opacity:1;stroke:none"
       transform="matrix(0.51111908,0,0,0.51111908,-17.843133,27.84129)"><flowRegion
         id="flowRegion1028"
         style="fill:#ffffff"><rect
           id="rect1030"
           width="431.99921"
           height="187.21547"
           x="100.24805"
           y="201.59589"
           style="fill:#ffffff" /></flowRegion><flowPara
         id="flowPara1046"
         style="font-style:normal;font-variant:normal;font-weight:normal;font-stretch:normal;font-family:'Caveat Brush';-inkscape-font-specification:'Caveat Brush'">Lorem ipsum dolor sit amet</flowPara></flowRoot>  </g>
  <g
     inkscape:groupmode="layer"
     id="layer2"
     inkscape:label="Layer 2"
     transform="translate(0,-32.41665)" />
</svg>
