<?xml version="1.0" encoding="UTF-8" standalone="no"?>
<!-- Created with Inkscape (http://www.inkscape.org/) -->

<svg
   xmlns:dc="http://purl.org/dc/elements/1.1/"
   xmlns:cc="http://creativecommons.org/ns#"
   xmlns:rdf="http://www.w3.org/1999/02/22-rdf-syntax-ns#"
   xmlns:svg="http://www.w3.org/2000/svg"
   xmlns="http://www.w3.org/2000/svg"
   xmlns:sodipodi="http://sodipodi.sourceforge.net/DTD/sodipodi-0.dtd"
   xmlns:inkscape="http://www.inkscape.org/namespaces/inkscape"
   width="210mm"
   height="297mm"
   viewBox="0 0 210 297"
   version="1.1"
   id="svg1473"
   inkscape:version="0.92.3 (2405546, 2018-03-11)"
   sodipodi:docname="petanikode-logo-2018.svg">
  <defs
     id="defs1467" />
  <sodipodi:namedview
     id="base"
     pagecolor="#ffffff"
     bordercolor="#666666"
     borderopacity="1.0"
     inkscape:pageopacity="0.0"
     inkscape:pageshadow="2"
     inkscape:zoom="0.9899495"
     inkscape:cx="429.34288"
     inkscape:cy="816.94414"
     inkscape:document-units="mm"
     inkscape:current-layer="g2083"
     showgrid="false"
     inkscape:window-width="1336"
     inkscape:window-height="739"
     inkscape:window-x="30"
     inkscape:window-y="0"
     inkscape:window-maximized="1" />
  <metadata
     id="metadata1470">
    <rdf:RDF>
      <cc:Work
         rdf:about="">
        <dc:format>image/svg+xml</dc:format>
        <dc:type
           rdf:resource="http://purl.org/dc/dcmitype/StillImage" />
        <dc:title />
      </cc:Work>
    </rdf:RDF>
  </metadata>
  <g
     inkscape:label="Layer 1"
     inkscape:groupmode="layer"
     id="layer1">
    <g
       id="g2161"
       inkscape:export-xdpi="96"
       inkscape:export-ydpi="96">
      <rect
         y="62.654766"
         x="16.630953"
         height="31.75"
         width="79.375"
         id="rect2069"
         style="opacity:1;fill:#333333;fill-opacity:1;stroke:none;stroke-width:1.14530313;stroke-miterlimit:4;stroke-dasharray:2.29060629, 1.14530314000000000;stroke-dashoffset:0" />
      <g
         style="fill:#ffffff"
         id="g2083"
         transform="translate(-402.32259,-453.83514)">
        <g
           id="g898"
           transform="translate(1.2835083e-5,-4.3917236e-5)">
          <g
             id="text2075"
             style="font-style:normal;font-weight:normal;font-size:16.18058205px;line-height:1.25;font-family:sans-serif;letter-spacing:0px;word-spacing:0px;fill:#ffffff;fill-opacity:1;stroke:none;stroke-width:0.40451452"
             aria-label="k   de">
            <path
               id="path2286"
               style="font-weight:bold;fill:#ffffff;stroke-width:0.40451452"
               d="m 443.16217,537.64501 q 0.0162,0.93847 0.0647,1.6666 0.0647,0.72812 0.17798,1.40771 -0.56632,0.21034 -1.19736,0.29125 -0.63104,0.0971 -1.56952,0.0971 -0.21034,-0.93847 -0.32361,-2.41091 -0.11326,-1.48861 -0.11326,-3.28465 0,-1.87695 0.11326,-4.10987 0.11327,-2.2491 0.29125,-3.20376 0.71195,0 1.86077,0.19417 1.14882,0.19417 1.6666,0.42069 -0.22653,0.79285 -0.46924,2.42709 -0.24271,1.61806 -0.37215,3.28466 0.45306,-0.48542 0.93847,-1.0841 0.48542,-0.59868 1.89313,-2.47563 0.59868,0.27507 1.21355,0.84139 0.61486,0.56632 0.93847,1.11646 -0.63104,0.79285 -1.47243,1.55334 -0.84139,0.74431 -1.97403,1.55333 0.61486,0.61487 1.42389,1.24591 0.80903,0.63104 2.20056,1.53715 -0.77667,0.93848 -1.35917,1.37535 -0.56632,0.4207 -1.21355,0.61487 -0.7443,-0.66341 -1.42389,-1.4239 -0.67958,-0.76048 -1.29444,-1.63423 z"
               inkscape:connector-curvature="0" />
            <path
               id="path2288"
               style="font-weight:bold;fill:#ffffff;stroke-width:0.40451452"
               d="m 467.97003,540.55751 q -0.46924,0.12945 -1.19736,0.22653 -0.71195,0.0971 -1.29445,0.0971 -0.0647,-0.32361 -0.14562,-0.76048 -0.0809,-0.43688 -0.16181,-1.05174 -0.35597,0.82521 -0.90611,1.21354 -0.53396,0.40452 -1.31063,0.40452 -1.42389,0 -2.20056,-1.05174 -0.77667,-1.05174 -0.77667,-2.92869 0,-2.37854 1.18119,-3.78625 1.19736,-1.4239 3.21993,-1.4239 0.0809,0 0.12945,0 0.0647,0 0.11326,0.0162 -0.0162,-0.71195 -0.0324,-1.37535 -0.0162,-0.67959 -0.0162,-1.27827 0.37215,-0.19417 1.05174,-0.30743 0.67958,-0.11327 1.39153,-0.11327 0.32361,0 0.63104,0.0324 0.30743,0.0324 0.61486,0.0971 -0.1618,1.13264 -0.25889,3.65681 -0.0809,2.52417 -0.0809,6.37515 0,0.45306 0,0.90611 0.0162,0.43688 0.0485,1.05174 z m -4.83799,-4.23931 q 0,1.03556 0.21034,1.5857 0.21035,0.53395 0.61487,0.53395 0.29125,0 0.53396,-0.48541 0.25888,-0.48542 0.40451,-1.37535 -0.0809,-1.11646 -0.12944,-1.87695 -0.0485,-0.77667 -0.0809,-1.44007 h -0.11326 q -0.66341,0 -1.05174,0.80903 -0.38833,0.79285 -0.38833,2.2491 z"
               inkscape:connector-curvature="0" />
            <path
               id="path2290"
               style="font-weight:bold;fill:#ffffff;stroke-width:0.40451452"
               d="m 472.79311,534.60306 q 0.19416,0.0485 0.37215,0.0809 0.19417,0.0162 0.32361,0.0162 0.12945,0 0.29125,0 0.17799,-0.0162 0.24271,-0.0324 0.0971,-0.38833 0.14563,-0.72813 0.0647,-0.33979 0.0647,-0.61486 0,-0.33979 -0.0971,-0.5016 -0.0809,-0.1618 -0.25889,-0.1618 -0.32361,0 -0.61487,0.53396 -0.29125,0.51777 -0.46923,1.40771 z m 1.95785,2.49181 q 0.61486,0.11326 1.2459,0.45305 0.64723,0.32361 1.05174,0.74431 -0.12944,0.42069 -0.59868,0.90611 -0.46924,0.48542 -1.11646,0.80903 -0.51778,0.25889 -1.13264,0.38834 -0.59868,0.14562 -1.26209,0.14562 -1.68278,0 -2.63743,-0.97083 -0.93848,-0.98702 -0.93848,-2.6698 0,-1.05174 0.32362,-2.05493 0.33979,-1.01938 0.95465,-1.84459 0.69577,-0.92229 1.60188,-1.44007 0.90611,-0.51778 1.86077,-0.51778 1.35916,0 2.16819,0.69576 0.80903,0.67959 0.80903,1.82841 0,0.51778 -0.11326,1.14882 -0.0971,0.61486 -0.25889,1.06792 -0.5016,0.24271 -1.24591,0.37215 -0.72812,0.11327 -1.7475,0.11327 -0.29125,0 -0.5825,-0.0324 -0.27507,-0.0324 -0.55014,-0.0809 -0.0162,0.0971 -0.0162,0.22653 0,0.11326 0,0.35597 0,0.97084 0.24271,1.48862 0.25889,0.51778 0.72812,0.51778 0.30744,0 0.66341,-0.5016 0.35597,-0.5016 0.55014,-1.14882 z"
               inkscape:connector-curvature="0" />
          </g>
          <path
             inkscape:connector-curvature="0"
             id="path2077"
             d="m 453.81687,530.32254 c -2.8122,0 -5.07601,2.26409 -5.07601,5.07628 0,2.8122 2.26381,5.07601 5.07601,5.07601 2.81219,0 5.07628,-2.26381 5.07628,-5.07601 0,-2.81219 -2.26409,-5.07628 -5.07628,-5.07628 z m 1.20807,2.44886 1.88557,4.11796 -6.18756,-2.85618 z m -2.73186,2.22993 3.21715,1.52487 -2.33707,1.42917 -0.41577,-1.19143 -0.41224,0.074 -0.03,-1.05374 z"
             style="fill:#ffffff;fill-opacity:1;stroke:none;stroke-width:0.86064708;stroke-miterlimit:4;stroke-dasharray:none;stroke-dashoffset:0" />
          <g
             id="text2081"
             style="font-style:normal;font-weight:normal;font-size:8.28168583px;line-height:1.25;font-family:sans-serif;letter-spacing:0px;word-spacing:0px;fill:#ffffff;fill-opacity:1;stroke:none;stroke-width:0.20704219"
             aria-label="Petani">
            <path
               id="path2293"
               style="font-style:normal;font-variant:normal;font-weight:normal;font-stretch:normal;font-family:'Caveat Brush';-inkscape-font-specification:'Caveat Brush';fill:#ffffff;stroke-width:0.20704219"
               d="M 447.29212,524.68223 Q 447.0768,524.558 446.45567,524.558 l 0.0497,0.51347 q 0.0663,0.44721 0.11595,1.6729 0.0745,-0.0166 0.0994,-0.0414 0.0663,-0.0497 0.14079,-0.0497 0.10766,-0.0249 0.20704,-0.14907 0.24845,-0.20704 0.38095,-0.34783 l 0.2733,-0.31471 q 0.0248,-0.008 0.0828,-0.18219 0.058,-0.1822 0.0745,-0.29814 0,-0.24017 -0.0497,-0.2733 0,-0.0166 -0.0994,-0.20704 -0.0331,-0.0249 -0.19876,-0.12423 z m -1.71431,-0.9524 0.46378,-0.0662 0.59628,-0.0414 0.3147,0.0414 q 0.0331,0.0331 0.15736,0.0414 0.24016,-0.008 0.64597,0.2733 0.0994,0.0331 0.16563,0.11594 l 0.3147,0.38096 q 0.0166,0.0166 0.0497,0.0911 0.0331,0.0663 0.0911,0.15736 -0.0166,0 0.0248,0.0662 0.10766,0.1822 0.0994,0.21532 0.0414,0.0331 0.0828,0.21533 0.0414,0.1822 0.0248,0.24845 0.008,0.008 -0.0166,0.19048 -0.058,0.39752 -0.20704,0.588 l -0.10767,0.19876 -0.18219,0.26501 -0.10767,0.0994 q -0.29814,0.33127 -0.72878,0.51347 -0.0166,0.008 -0.0497,0.0166 l -0.19876,0.0662 -0.32299,0.0828 q 0,0.24017 0.058,1.10975 0.0331,0.29814 0.0497,0.33126 0,0.2733 -0.0331,0.3644 -0.0331,0.0994 -0.10766,0.14079 -0.0745,0.0497 -0.25673,0.058 -0.0497,0.0166 -0.17391,-0.0331 -0.12423,-0.0414 -0.19877,-0.13251 l -0.0497,-0.26501 q 0.0166,-0.0166 -0.0497,-0.15735 -0.058,-0.0663 -0.0911,-0.23189 l -0.058,-0.78676 -0.008,-0.26501 q -0.48034,0.0331 -0.57972,-0.26502 -0.0828,-0.15735 -0.0331,-0.20704 l 0.0414,-0.10766 q 0.0994,-0.15735 0.38095,-0.15735 h 0.17392 q -0.0166,-0.0166 -0.0166,-0.11595 l -0.0331,-0.34783 v -0.14907 l -0.008,-0.10766 q 0.008,-0.0745 -0.008,-0.16563 v -0.0497 l -0.0166,-0.20705 v -0.15735 l -0.008,-0.0828 q 0,-0.588 -0.0663,-0.74536 -0.2733,0.15736 -0.3644,0.17392 -0.0911,0.008 -0.30642,-0.12423 -0.0911,-0.0745 -0.0994,-0.16563 -0.14907,-0.20704 -0.0994,-0.33955 0.0166,-0.0663 0.13251,-0.20704 0.008,-0.0331 0.19876,-0.14907 0.14907,-0.14907 0.52174,-0.21533 z"
               inkscape:connector-curvature="0" />
            <path
               id="path2295"
               style="font-style:normal;font-variant:normal;font-weight:normal;font-stretch:normal;font-family:'Caveat Brush';-inkscape-font-specification:'Caveat Brush';fill:#ffffff;stroke-width:0.20704219"
               d="m 450.6528,526.49592 q 0.0331,-0.12423 -0.008,-0.31471 -0.058,-0.0497 -0.15735,-0.0497 -0.12422,0 -0.2236,0.23189 -0.13251,0.19876 -0.19876,0.43893 h -0.008 q -0.0911,0.34783 -0.0911,0.37268 0.13251,0.0331 0.21533,0.0331 0.0828,-0.008 0.19048,-0.0911 0.19048,-0.18219 0.28157,-0.62112 z m -0.0248,1.19256 -0.30642,0.0249 q -0.25673,0 -0.40581,-0.0497 l 0.0249,0.15735 q 0.0248,0.68738 0.38096,0.9027 0.0994,0.0414 0.16563,0.0414 0.0663,0 0.17392,-0.0662 0.0331,-0.0331 0.058,-0.0911 0.008,-0.0745 0.0828,-0.0663 0.33954,-0.43064 0.51346,-0.33955 0.17392,0.11595 0.17392,0.1822 0,0.0331 -0.0414,0.0745 v 0.0497 q 0,0.0828 -0.10767,0.29814 -0.0994,0.21532 -0.21532,0.36439 -0.058,0.12423 -0.14907,0.17392 -0.26501,0.16563 -0.56315,0.1325 -0.0663,-0.008 -0.0911,-0.0331 -0.0663,-0.0166 -0.0994,-0.008 l -0.0663,-0.008 q -0.0745,0 -0.12422,-0.0331 -0.0828,-0.0497 -0.11595,-0.0497 -0.21532,-0.0828 -0.26501,-0.12423 -0.0414,-0.0414 -0.0745,-0.058 -0.0331,-0.0166 -0.15736,-0.17391 -0.10766,-0.0911 -0.12422,-0.11595 -0.0497,-0.0745 -0.0911,-0.10766 -0.0331,-0.0331 -0.0414,-0.14907 -0.0331,-0.0414 -0.0331,-0.10766 l -0.0331,-0.0663 q 0,-0.058 -0.0497,-0.0911 -0.0497,-0.0497 -0.0497,-0.12423 v -0.0663 q -0.0331,-0.0166 -0.0166,-0.0994 v -0.21533 l -0.008,-0.0745 v -0.058 q -0.008,-0.0331 0.0166,-0.14079 l -0.008,-0.0745 q 0.008,-0.008 0.0249,-0.13251 0.0331,-0.17391 0.0745,-0.21532 v -0.0745 q 0.008,-0.0249 0.008,-0.0663 0,-0.0414 0.0166,-0.0911 0.0248,-0.0497 0.13251,-0.37267 l 0.1325,-0.28986 q 0.058,-0.12423 0.1822,-0.2733 0.008,-0.0414 0.0663,-0.14907 l 0.10767,-0.0994 q 0.0497,-0.0745 0.14907,-0.10766 0.11594,-0.058 0.17391,-0.058 l 0.23189,-0.0331 q 0.0414,0.008 0.058,0.008 h 0.10766 q 0.1822,0.0166 0.29814,0.0745 0.24845,0.0745 0.3644,0.19048 0.25673,0.28986 0.25673,0.55487 0,0.26501 -0.0828,0.45549 -0.20704,0.47206 -0.29814,0.59628 -0.14907,0.2733 -0.35611,0.2733 z"
               inkscape:connector-curvature="0" />
            <path
               id="path2297"
               style="font-style:normal;font-variant:normal;font-weight:normal;font-stretch:normal;font-family:'Caveat Brush';-inkscape-font-specification:'Caveat Brush';fill:#ffffff;stroke-width:0.20704219"
               d="m 452.7055,526.22262 0.008,-0.0745 q -0.17392,-0.0166 -0.24845,-0.0249 -0.0662,-0.0166 -0.22361,-0.0331 -0.15735,-0.0166 -0.24845,-0.0497 -0.17391,-0.058 -0.19876,-0.29814 -0.0248,-0.24845 0.15735,-0.30642 0.16564,-0.0414 0.23189,-0.0414 0.0663,0 0.24845,-0.0166 0.0911,-0.0497 0.24845,-0.058 l 0.12423,-0.0331 q 0,0.008 0.0662,-0.0166 l 0.0414,-0.17392 q 0,-0.1325 0.0745,-0.26501 0,-0.058 0.10766,-0.32299 0,-0.0331 0.14907,-0.48033 0.0331,-0.0414 0.24845,-0.19048 0.13251,-0.0663 0.37267,0.0911 0.13251,0.058 0.1822,0.15735 -0.0497,0.0497 -0.0497,0.23188 -0.008,0.058 -0.11594,0.61285 v 0.23189 q 0.0662,0.008 0.21532,0.0414 0.15735,0.0331 0.37268,0.0745 0.41408,0.0828 0.52174,0.33127 0.0414,0.18219 -0.0166,0.25673 -0.058,0.0745 -0.28158,0.10766 -0.18219,0.008 -0.48034,0.008 -0.28985,0 -0.43064,0.0414 -0.0166,0.14907 -0.0166,0.23189 l -0.008,0.12422 q 0,0.058 -0.0745,0.61285 -0.0497,0.0745 -0.0828,0.7702 v 0.60456 q 0,0.14907 0.0249,0.28158 0.008,0.18219 0.0414,0.25673 0,0.0745 0.0414,0.3147 -0.0994,0.24017 -0.33127,0.24017 -0.2236,0 -0.39752,-0.16563 l -0.0911,-0.13251 q -0.0249,-0.0662 -0.0414,-0.0911 -0.008,-0.0248 -0.0166,-0.058 -0.058,-0.16563 -0.0911,-0.20704 -0.0497,-0.0663 -0.0497,-0.0994 0,-0.0331 0,-0.0828 -0.0166,-0.14079 -0.0414,-0.24017 -0.0414,-0.0414 -0.0414,-0.28158 0.0166,-0.43892 0,-0.50518 0.0248,-0.0248 0.008,-0.3147 l 0.0248,-0.1822 q 0,-0.0331 0.0331,-0.24845 -0.0166,-0.0331 -0.008,-0.17392 0.008,-0.14907 0.0248,-0.20704 0.0166,-0.0994 0.0166,-0.24845 z"
               inkscape:connector-curvature="0" />
            <path
               id="path2299"
               style="font-style:normal;font-variant:normal;font-weight:normal;font-stretch:normal;font-family:'Caveat Brush';-inkscape-font-specification:'Caveat Brush';fill:#ffffff;stroke-width:0.20704219"
               d="m 456.76029,526.98454 q 0.008,-0.0249 0.0331,-0.28986 -0.0166,-0.0248 -0.0414,-0.1822 -0.0663,-0.13251 -0.17392,-0.19876 -0.1325,-0.058 -0.15735,-0.058 -0.0745,0.0248 -0.10766,0.058 -0.0249,0.0249 -0.14079,0.23189 -0.10766,0.20704 -0.1822,0.68738 -0.0663,0.48034 -0.0663,0.69566 0,0.21532 0.0166,0.53003 0.0166,0.30642 0.13251,0.28986 0.10766,-0.0166 0.29814,-0.59629 0.008,-0.0414 0.058,-0.14907 z m 0.96896,-0.33955 q 0,0.43893 0.0911,0.80332 0.0414,0.3644 0.14907,0.77848 0.0248,0.16563 0.0166,0.16563 0.20704,0.4555 0.23189,0.54659 0.0248,0.0828 -0.008,0.14079 v -0.008 q -0.0248,0.0745 -0.15735,0.13251 -0.12422,0.0662 -0.2236,0.0828 -0.31471,0.0994 -0.37268,-0.24017 -0.0331,-0.0249 -0.0994,-0.0994 -0.058,-0.0828 -0.0662,-0.13251 -0.008,-0.058 -0.058,-0.10766 -0.0166,-0.0414 -0.0745,-0.10766 -0.058,-0.0663 -0.0662,-0.13251 l -0.0249,-0.22361 -0.0166,-0.008 q -0.13251,0.2733 -0.17392,0.38096 -0.0994,0.28158 -0.34783,0.64597 -0.28158,0.3147 -0.68738,0.1822 -0.14907,-0.008 -0.24017,-0.0911 -0.0828,-0.0828 -0.11594,-0.0911 -0.0497,-0.0166 -0.14079,-0.12422 -0.14907,-0.19877 -0.1822,-0.588 v -0.21533 q 0.0249,-0.0414 0,-0.39752 v -0.0497 q -0.0497,-0.24845 -0.0497,-0.29814 0,-0.0497 0.0166,-0.13251 0.0166,-0.0828 0.008,-0.0994 -0.008,-0.0248 -0.008,-0.0745 v -0.12423 l 0.0414,-0.44721 q 0.0911,-0.28986 0.19876,-0.52174 0.0331,-0.14079 0.12422,-0.22361 0.20704,-0.22361 0.22361,-0.25673 0.058,-0.12423 0.43064,-0.19876 l 0.14079,0.008 q 0.0828,0 0.14907,0.0248 0.0663,0.0166 0.0911,0.0166 0.11595,0.058 0.19048,0.058 0.0745,0 0.24845,0.11594 0.0497,0.008 0.24845,0.14079 0.21533,0.14079 0.24845,0.15735 l 0.21533,0.0745 q 0.0911,0.0745 0.0911,0.0828 0,0.008 -0.0414,0.45549 z"
               inkscape:connector-curvature="0" />
            <path
               id="path2301"
               style="font-style:normal;font-variant:normal;font-weight:normal;font-stretch:normal;font-family:'Caveat Brush';-inkscape-font-specification:'Caveat Brush';fill:#ffffff;stroke-width:0.20704219"
               d="m 458.8408,528.32617 q 0,-0.0331 0.0166,-0.24845 -0.0663,-0.0994 -0.0663,-0.44721 -0.008,-0.88614 -0.008,-0.90271 0.008,-0.0166 -0.0166,-0.058 -0.0249,-0.0497 -0.0249,-0.0994 v -0.0911 q -0.0331,-0.27329 0.0331,-0.41408 0.0166,-0.0828 0.0911,-0.12423 0.058,-0.0828 0.16563,-0.0828 0.10766,0 0.1822,0.0248 0.058,-0.0248 0.10766,0.0663 0.0994,0.0414 0.10766,0.0414 l 0.0414,0.0331 q 0.0663,0 0.0828,0.0249 0.0248,0.0166 0.0331,0.0994 l 0.0745,0.7205 v 0.14079 q 0.0166,0.0994 0.0166,0.15735 l 0.008,0.38924 0.0331,0.008 q 0.0497,-0.19877 0.10766,-0.33127 0.0663,-0.14079 0.0828,-0.20704 0.008,-0.0663 0.058,-0.12423 0.0497,-0.0994 0.0497,-0.14079 0,-0.0414 0.0663,-0.10766 0.0745,-0.1822 0.14079,-0.26501 l 0.0248,-0.0663 q 0.0331,-0.0497 0.0497,-0.0828 0.0911,-0.0745 0.13251,-0.13251 l 0.0663,-0.0497 q 0.0166,0 0.0331,-0.0414 0.0166,-0.0497 0.21532,-0.058 0.15735,-0.0249 0.26502,0 0.0745,0 0.0911,0.008 l 0.0497,0.0497 0.0663,0.0166 q 0.14079,0.0745 0.18219,0.35612 0,0.56315 0.0414,0.74535 0.058,0.47205 0.19048,0.84473 0.14079,0.37268 0.2733,0.4969 0.17391,0.22361 0.0662,0.47206 -0.0745,0.12422 -0.19048,0.1325 -0.11594,0.008 -0.16563,-0.008 -0.0662,0 -0.10766,-0.0248 -0.0911,0.0248 -0.15736,-0.0414 -0.0745,0 -0.11594,-0.0745 -0.28986,-0.38095 -0.33955,-0.47205 -0.0414,-0.0911 -0.0662,-0.12423 -0.0166,-0.0331 -0.0249,-0.058 -0.008,-0.0248 -0.0248,-0.0745 -0.0166,-0.0745 -0.0663,-0.1325 -0.0414,-0.0663 -0.0414,-0.0994 -0.0249,-0.0414 -0.0331,-0.13251 -0.0497,-0.0331 -0.0497,-0.0828 -0.0414,-0.0248 -0.058,-0.14907 l -0.0331,-0.21532 -0.0166,-0.008 q -0.41409,0.52174 -0.47206,1.18428 -0.0166,0.16563 -0.0331,0.21532 -0.0414,0.0663 0.0331,0.20705 v 0.0497 q 0,0.0331 -0.0911,0.12422 -0.0994,0.008 -0.11594,0.008 h -0.0911 q -0.0166,0 -0.0662,0.0249 -0.0497,0 -0.0828,0.0166 -0.0331,0.0166 -0.0911,-0.008 -0.14907,-0.008 -0.17391,-0.0249 -0.0248,-0.008 -0.0745,-0.0248 -0.0497,-0.008 -0.0828,-0.0497 -0.0414,0 -0.058,-0.0497 -0.21532,-0.21533 -0.21532,-0.3644 v -0.058 l -0.008,-0.0663 q 0.0166,-0.13251 -0.0166,-0.24017 z"
               inkscape:connector-curvature="0" />
            <path
               id="path2303"
               style="font-style:normal;font-variant:normal;font-weight:normal;font-stretch:normal;font-family:'Caveat Brush';-inkscape-font-specification:'Caveat Brush';fill:#ffffff;stroke-width:0.20704219"
               d="m 463.53083,524.45862 h 0.0248 q 0.28986,0.0166 0.37268,0.17392 0.0911,0.14907 0.0662,0.28986 -0.0166,0.14079 -0.2236,0.34783 -0.19877,0.20704 -0.3644,0.19876 -0.0497,0 -0.19876,-0.0497 -0.14079,-0.0497 -0.14907,-0.058 -0.008,-0.0331 -0.0497,-0.0497 -0.21532,-0.0828 -0.24017,-0.42237 0,-0.0331 0.0497,-0.0497 -0.0331,0 -0.008,-0.0994 0.058,-0.1822 0.25673,-0.24017 0.25673,-0.0497 0.46378,-0.0414 z m -0.0166,2.09527 -0.14079,1.38304 q 0,0.0497 0,0.0994 0,0.0414 0.008,0.0745 -0.008,0.0331 -0.008,0.0828 v 0.59628 q 0.0331,0.28158 0,0.33127 -0.0497,0.0166 -0.11594,0.0497 -0.0662,0.0414 -0.25673,0.0166 -0.1822,-0.0166 -0.26502,-0.058 l -0.0994,-0.0248 q -0.0828,0 -0.10766,-0.0745 -0.10766,-0.0663 -0.11594,-0.17391 -0.0249,-0.0414 0.058,-0.11595 -0.008,-0.0414 -0.0331,-0.11594 -0.0248,-0.0828 -0.0166,-0.14907 0.0248,-0.0414 -0.0248,-0.12422 0,-0.0911 0.0248,-0.20705 0.0331,-0.0331 0.0166,-0.24017 0.058,-0.0828 0.058,-0.23188 -0.0331,-0.13251 0.0248,-0.26502 0.058,-0.1325 0.0662,-0.26501 0.0166,-0.20704 0.0745,-0.4058 0,-0.0828 0.0745,-0.26502 0.0828,-0.18219 0.10767,-0.21532 l 0.1325,-0.13251 0.14907,-0.058 h 0.008 q 0.0994,-0.0331 0.19876,0.008 0.24016,0.0911 0.28986,0.14079 -0.0331,0.0331 -0.0414,0.0994 -0.008,0.0662 -0.0166,0.11594 -0.0331,0.0414 -0.0497,0.12423 z"
               inkscape:connector-curvature="0" />
          </g>
        </g>
      </g>
    </g>
    <g
       id="g2171"
       transform="translate(-4.9136905)">
      <rect
         style="opacity:1;fill:#008080;fill-opacity:1;stroke:none;stroke-width:1.14530313;stroke-miterlimit:4;stroke-dasharray:2.29060629, 1.14530314;stroke-dashoffset:0"
         id="rect2085"
         width="79.375"
         height="31.75"
         x="123.22024"
         y="62.654766" />
      <g
         transform="translate(-295.73329,-453.83518)"
         id="g2099"
         style="fill:#ffffff">
        <g
           aria-label="k   de"
           style="font-style:normal;font-weight:normal;font-size:16.18058205px;line-height:1.25;font-family:sans-serif;letter-spacing:0px;word-spacing:0px;fill:#ffffff;fill-opacity:1;stroke:none;stroke-width:0.40451452"
           id="text2091">
          <path
             d="m 443.16217,537.64501 q 0.0162,0.93847 0.0647,1.6666 0.0647,0.72812 0.17798,1.40771 -0.56632,0.21034 -1.19736,0.29125 -0.63104,0.0971 -1.56952,0.0971 -0.21034,-0.93847 -0.32361,-2.41091 -0.11326,-1.48861 -0.11326,-3.28465 0,-1.87695 0.11326,-4.10987 0.11327,-2.2491 0.29125,-3.20376 0.71195,0 1.86077,0.19417 1.14882,0.19417 1.6666,0.42069 -0.22653,0.79285 -0.46924,2.42709 -0.24271,1.61806 -0.37215,3.28466 0.45306,-0.48542 0.93847,-1.0841 0.48542,-0.59868 1.89313,-2.47563 0.59868,0.27507 1.21355,0.84139 0.61486,0.56632 0.93847,1.11646 -0.63104,0.79285 -1.47243,1.55334 -0.84139,0.74431 -1.97403,1.55333 0.61486,0.61487 1.42389,1.24591 0.80903,0.63104 2.20056,1.53715 -0.77667,0.93848 -1.35917,1.37535 -0.56632,0.4207 -1.21355,0.61487 -0.7443,-0.66341 -1.42389,-1.4239 -0.67958,-0.76048 -1.29444,-1.63423 z"
             style="font-weight:bold;fill:#ffffff;stroke-width:0.40451452"
             id="path2306"
             inkscape:connector-curvature="0" />
          <path
             d="m 467.97003,540.55751 q -0.46924,0.12945 -1.19736,0.22653 -0.71195,0.0971 -1.29445,0.0971 -0.0647,-0.32361 -0.14562,-0.76048 -0.0809,-0.43688 -0.16181,-1.05174 -0.35597,0.82521 -0.90611,1.21354 -0.53396,0.40452 -1.31063,0.40452 -1.42389,0 -2.20056,-1.05174 -0.77667,-1.05174 -0.77667,-2.92869 0,-2.37854 1.18119,-3.78625 1.19736,-1.4239 3.21993,-1.4239 0.0809,0 0.12945,0 0.0647,0 0.11326,0.0162 -0.0162,-0.71195 -0.0324,-1.37535 -0.0162,-0.67959 -0.0162,-1.27827 0.37215,-0.19417 1.05174,-0.30743 0.67958,-0.11327 1.39153,-0.11327 0.32361,0 0.63104,0.0324 0.30743,0.0324 0.61486,0.0971 -0.1618,1.13264 -0.25889,3.65681 -0.0809,2.52417 -0.0809,6.37515 0,0.45306 0,0.90611 0.0162,0.43688 0.0485,1.05174 z m -4.83799,-4.23931 q 0,1.03556 0.21034,1.5857 0.21035,0.53395 0.61487,0.53395 0.29125,0 0.53396,-0.48541 0.25888,-0.48542 0.40451,-1.37535 -0.0809,-1.11646 -0.12944,-1.87695 -0.0485,-0.77667 -0.0809,-1.44007 h -0.11326 q -0.66341,0 -1.05174,0.80903 -0.38833,0.79285 -0.38833,2.2491 z"
             style="font-weight:bold;fill:#ffffff;stroke-width:0.40451452"
             id="path2308"
             inkscape:connector-curvature="0" />
          <path
             d="m 472.79311,534.60306 q 0.19416,0.0485 0.37215,0.0809 0.19417,0.0162 0.32361,0.0162 0.12945,0 0.29125,0 0.17799,-0.0162 0.24271,-0.0324 0.0971,-0.38833 0.14563,-0.72813 0.0647,-0.33979 0.0647,-0.61486 0,-0.33979 -0.0971,-0.5016 -0.0809,-0.1618 -0.25889,-0.1618 -0.32361,0 -0.61487,0.53396 -0.29125,0.51777 -0.46923,1.40771 z m 1.95785,2.49181 q 0.61486,0.11326 1.2459,0.45305 0.64723,0.32361 1.05174,0.74431 -0.12944,0.42069 -0.59868,0.90611 -0.46924,0.48542 -1.11646,0.80903 -0.51778,0.25889 -1.13264,0.38834 -0.59868,0.14562 -1.26209,0.14562 -1.68278,0 -2.63743,-0.97083 -0.93848,-0.98702 -0.93848,-2.6698 0,-1.05174 0.32362,-2.05493 0.33979,-1.01938 0.95465,-1.84459 0.69577,-0.92229 1.60188,-1.44007 0.90611,-0.51778 1.86077,-0.51778 1.35916,0 2.16819,0.69576 0.80903,0.67959 0.80903,1.82841 0,0.51778 -0.11326,1.14882 -0.0971,0.61486 -0.25889,1.06792 -0.5016,0.24271 -1.24591,0.37215 -0.72812,0.11327 -1.7475,0.11327 -0.29125,0 -0.5825,-0.0324 -0.27507,-0.0324 -0.55014,-0.0809 -0.0162,0.0971 -0.0162,0.22653 0,0.11326 0,0.35597 0,0.97084 0.24271,1.48862 0.25889,0.51778 0.72812,0.51778 0.30744,0 0.66341,-0.5016 0.35597,-0.5016 0.55014,-1.14882 z"
             style="font-weight:bold;fill:#ffffff;stroke-width:0.40451452"
             id="path2310"
             inkscape:connector-curvature="0" />
        </g>
        <path
           inkscape:connector-curvature="0"
           id="path2093"
           d="m 453.81687,530.32254 c -2.8122,0 -5.07601,2.26409 -5.07601,5.07628 0,2.8122 2.26381,5.07601 5.07601,5.07601 2.81219,0 5.07628,-2.26381 5.07628,-5.07601 0,-2.81219 -2.26409,-5.07628 -5.07628,-5.07628 z m 1.20807,2.44886 1.88557,4.11796 -6.18756,-2.85618 z m -2.73186,2.22993 3.21715,1.52487 -2.33707,1.42917 -0.41577,-1.19143 -0.41224,0.074 -0.03,-1.05374 z"
           style="fill:#ffffff;fill-opacity:1;stroke:none;stroke-width:0.86064708;stroke-miterlimit:4;stroke-dasharray:none;stroke-dashoffset:0" />
        <g
           aria-label="Petani"
           style="font-style:normal;font-weight:normal;font-size:8.28168583px;line-height:1.25;font-family:sans-serif;letter-spacing:0px;word-spacing:0px;fill:#ffffff;fill-opacity:1;stroke:none;stroke-width:0.20704219"
           id="text2097">
          <path
             d="M 447.29212,524.68223 Q 447.0768,524.558 446.45567,524.558 l 0.0497,0.51347 q 0.0663,0.44721 0.11595,1.6729 0.0745,-0.0166 0.0994,-0.0414 0.0663,-0.0497 0.14079,-0.0497 0.10766,-0.0249 0.20704,-0.14907 0.24845,-0.20704 0.38095,-0.34783 l 0.2733,-0.31471 q 0.0248,-0.008 0.0828,-0.18219 0.058,-0.1822 0.0745,-0.29814 0,-0.24017 -0.0497,-0.2733 0,-0.0166 -0.0994,-0.20704 -0.0331,-0.0249 -0.19876,-0.12423 z m -1.71431,-0.9524 0.46378,-0.0662 0.59628,-0.0414 0.3147,0.0414 q 0.0331,0.0331 0.15736,0.0414 0.24016,-0.008 0.64597,0.2733 0.0994,0.0331 0.16563,0.11594 l 0.3147,0.38096 q 0.0166,0.0166 0.0497,0.0911 0.0331,0.0663 0.0911,0.15736 -0.0166,0 0.0248,0.0662 0.10766,0.1822 0.0994,0.21532 0.0414,0.0331 0.0828,0.21533 0.0414,0.1822 0.0248,0.24845 0.008,0.008 -0.0166,0.19048 -0.058,0.39752 -0.20704,0.588 l -0.10767,0.19876 -0.18219,0.26501 -0.10767,0.0994 q -0.29814,0.33127 -0.72878,0.51347 -0.0166,0.008 -0.0497,0.0166 l -0.19876,0.0662 -0.32299,0.0828 q 0,0.24017 0.058,1.10975 0.0331,0.29814 0.0497,0.33126 0,0.2733 -0.0331,0.3644 -0.0331,0.0994 -0.10766,0.14079 -0.0745,0.0497 -0.25673,0.058 -0.0497,0.0166 -0.17391,-0.0331 -0.12423,-0.0414 -0.19877,-0.13251 l -0.0497,-0.26501 q 0.0166,-0.0166 -0.0497,-0.15735 -0.058,-0.0663 -0.0911,-0.23189 l -0.058,-0.78676 -0.008,-0.26501 q -0.48034,0.0331 -0.57972,-0.26502 -0.0828,-0.15735 -0.0331,-0.20704 l 0.0414,-0.10766 q 0.0994,-0.15735 0.38095,-0.15735 h 0.17392 q -0.0166,-0.0166 -0.0166,-0.11595 l -0.0331,-0.34783 v -0.14907 l -0.008,-0.10766 q 0.008,-0.0745 -0.008,-0.16563 v -0.0497 l -0.0166,-0.20705 v -0.15735 l -0.008,-0.0828 q 0,-0.588 -0.0663,-0.74536 -0.2733,0.15736 -0.3644,0.17392 -0.0911,0.008 -0.30642,-0.12423 -0.0911,-0.0745 -0.0994,-0.16563 -0.14907,-0.20704 -0.0994,-0.33955 0.0166,-0.0663 0.13251,-0.20704 0.008,-0.0331 0.19876,-0.14907 0.14907,-0.14907 0.52174,-0.21533 z"
             style="font-style:normal;font-variant:normal;font-weight:normal;font-stretch:normal;font-family:'Caveat Brush';-inkscape-font-specification:'Caveat Brush';fill:#ffffff;stroke-width:0.20704219"
             id="path2313"
             inkscape:connector-curvature="0" />
          <path
             d="m 450.6528,526.49592 q 0.0331,-0.12423 -0.008,-0.31471 -0.058,-0.0497 -0.15735,-0.0497 -0.12422,0 -0.2236,0.23189 -0.13251,0.19876 -0.19876,0.43893 h -0.008 q -0.0911,0.34783 -0.0911,0.37268 0.13251,0.0331 0.21533,0.0331 0.0828,-0.008 0.19048,-0.0911 0.19048,-0.18219 0.28157,-0.62112 z m -0.0248,1.19256 -0.30642,0.0249 q -0.25673,0 -0.40581,-0.0497 l 0.0249,0.15735 q 0.0248,0.68738 0.38096,0.9027 0.0994,0.0414 0.16563,0.0414 0.0663,0 0.17392,-0.0662 0.0331,-0.0331 0.058,-0.0911 0.008,-0.0745 0.0828,-0.0663 0.33954,-0.43064 0.51346,-0.33955 0.17392,0.11595 0.17392,0.1822 0,0.0331 -0.0414,0.0745 v 0.0497 q 0,0.0828 -0.10767,0.29814 -0.0994,0.21532 -0.21532,0.36439 -0.058,0.12423 -0.14907,0.17392 -0.26501,0.16563 -0.56315,0.1325 -0.0663,-0.008 -0.0911,-0.0331 -0.0663,-0.0166 -0.0994,-0.008 l -0.0663,-0.008 q -0.0745,0 -0.12422,-0.0331 -0.0828,-0.0497 -0.11595,-0.0497 -0.21532,-0.0828 -0.26501,-0.12423 -0.0414,-0.0414 -0.0745,-0.058 -0.0331,-0.0166 -0.15736,-0.17391 -0.10766,-0.0911 -0.12422,-0.11595 -0.0497,-0.0745 -0.0911,-0.10766 -0.0331,-0.0331 -0.0414,-0.14907 -0.0331,-0.0414 -0.0331,-0.10766 l -0.0331,-0.0663 q 0,-0.058 -0.0497,-0.0911 -0.0497,-0.0497 -0.0497,-0.12423 v -0.0663 q -0.0331,-0.0166 -0.0166,-0.0994 v -0.21533 l -0.008,-0.0745 v -0.058 q -0.008,-0.0331 0.0166,-0.14079 l -0.008,-0.0745 q 0.008,-0.008 0.0249,-0.13251 0.0331,-0.17391 0.0745,-0.21532 v -0.0745 q 0.008,-0.0249 0.008,-0.0663 0,-0.0414 0.0166,-0.0911 0.0248,-0.0497 0.13251,-0.37267 l 0.1325,-0.28986 q 0.058,-0.12423 0.1822,-0.2733 0.008,-0.0414 0.0663,-0.14907 l 0.10767,-0.0994 q 0.0497,-0.0745 0.14907,-0.10766 0.11594,-0.058 0.17391,-0.058 l 0.23189,-0.0331 q 0.0414,0.008 0.058,0.008 h 0.10766 q 0.1822,0.0166 0.29814,0.0745 0.24845,0.0745 0.3644,0.19048 0.25673,0.28986 0.25673,0.55487 0,0.26501 -0.0828,0.45549 -0.20704,0.47206 -0.29814,0.59628 -0.14907,0.2733 -0.35611,0.2733 z"
             style="font-style:normal;font-variant:normal;font-weight:normal;font-stretch:normal;font-family:'Caveat Brush';-inkscape-font-specification:'Caveat Brush';fill:#ffffff;stroke-width:0.20704219"
             id="path2315"
             inkscape:connector-curvature="0" />
          <path
             d="m 452.7055,526.22262 0.008,-0.0745 q -0.17392,-0.0166 -0.24845,-0.0249 -0.0662,-0.0166 -0.22361,-0.0331 -0.15735,-0.0166 -0.24845,-0.0497 -0.17391,-0.058 -0.19876,-0.29814 -0.0248,-0.24845 0.15735,-0.30642 0.16564,-0.0414 0.23189,-0.0414 0.0663,0 0.24845,-0.0166 0.0911,-0.0497 0.24845,-0.058 l 0.12423,-0.0331 q 0,0.008 0.0662,-0.0166 l 0.0414,-0.17392 q 0,-0.1325 0.0745,-0.26501 0,-0.058 0.10766,-0.32299 0,-0.0331 0.14907,-0.48033 0.0331,-0.0414 0.24845,-0.19048 0.13251,-0.0663 0.37267,0.0911 0.13251,0.058 0.1822,0.15735 -0.0497,0.0497 -0.0497,0.23188 -0.008,0.058 -0.11594,0.61285 v 0.23189 q 0.0662,0.008 0.21532,0.0414 0.15735,0.0331 0.37268,0.0745 0.41408,0.0828 0.52174,0.33127 0.0414,0.18219 -0.0166,0.25673 -0.058,0.0745 -0.28158,0.10766 -0.18219,0.008 -0.48034,0.008 -0.28985,0 -0.43064,0.0414 -0.0166,0.14907 -0.0166,0.23189 l -0.008,0.12422 q 0,0.058 -0.0745,0.61285 -0.0497,0.0745 -0.0828,0.7702 v 0.60456 q 0,0.14907 0.0249,0.28158 0.008,0.18219 0.0414,0.25673 0,0.0745 0.0414,0.3147 -0.0994,0.24017 -0.33127,0.24017 -0.2236,0 -0.39752,-0.16563 l -0.0911,-0.13251 q -0.0249,-0.0662 -0.0414,-0.0911 -0.008,-0.0248 -0.0166,-0.058 -0.058,-0.16563 -0.0911,-0.20704 -0.0497,-0.0663 -0.0497,-0.0994 0,-0.0331 0,-0.0828 -0.0166,-0.14079 -0.0414,-0.24017 -0.0414,-0.0414 -0.0414,-0.28158 0.0166,-0.43892 0,-0.50518 0.0248,-0.0248 0.008,-0.3147 l 0.0248,-0.1822 q 0,-0.0331 0.0331,-0.24845 -0.0166,-0.0331 -0.008,-0.17392 0.008,-0.14907 0.0248,-0.20704 0.0166,-0.0994 0.0166,-0.24845 z"
             style="font-style:normal;font-variant:normal;font-weight:normal;font-stretch:normal;font-family:'Caveat Brush';-inkscape-font-specification:'Caveat Brush';fill:#ffffff;stroke-width:0.20704219"
             id="path2317"
             inkscape:connector-curvature="0" />
          <path
             d="m 456.76029,526.98454 q 0.008,-0.0249 0.0331,-0.28986 -0.0166,-0.0248 -0.0414,-0.1822 -0.0663,-0.13251 -0.17392,-0.19876 -0.1325,-0.058 -0.15735,-0.058 -0.0745,0.0248 -0.10766,0.058 -0.0249,0.0249 -0.14079,0.23189 -0.10766,0.20704 -0.1822,0.68738 -0.0663,0.48034 -0.0663,0.69566 0,0.21532 0.0166,0.53003 0.0166,0.30642 0.13251,0.28986 0.10766,-0.0166 0.29814,-0.59629 0.008,-0.0414 0.058,-0.14907 z m 0.96896,-0.33955 q 0,0.43893 0.0911,0.80332 0.0414,0.3644 0.14907,0.77848 0.0248,0.16563 0.0166,0.16563 0.20704,0.4555 0.23189,0.54659 0.0248,0.0828 -0.008,0.14079 v -0.008 q -0.0248,0.0745 -0.15735,0.13251 -0.12422,0.0662 -0.2236,0.0828 -0.31471,0.0994 -0.37268,-0.24017 -0.0331,-0.0249 -0.0994,-0.0994 -0.058,-0.0828 -0.0662,-0.13251 -0.008,-0.058 -0.058,-0.10766 -0.0166,-0.0414 -0.0745,-0.10766 -0.058,-0.0663 -0.0662,-0.13251 l -0.0249,-0.22361 -0.0166,-0.008 q -0.13251,0.2733 -0.17392,0.38096 -0.0994,0.28158 -0.34783,0.64597 -0.28158,0.3147 -0.68738,0.1822 -0.14907,-0.008 -0.24017,-0.0911 -0.0828,-0.0828 -0.11594,-0.0911 -0.0497,-0.0166 -0.14079,-0.12422 -0.14907,-0.19877 -0.1822,-0.588 v -0.21533 q 0.0249,-0.0414 0,-0.39752 v -0.0497 q -0.0497,-0.24845 -0.0497,-0.29814 0,-0.0497 0.0166,-0.13251 0.0166,-0.0828 0.008,-0.0994 -0.008,-0.0248 -0.008,-0.0745 v -0.12423 l 0.0414,-0.44721 q 0.0911,-0.28986 0.19876,-0.52174 0.0331,-0.14079 0.12422,-0.22361 0.20704,-0.22361 0.22361,-0.25673 0.058,-0.12423 0.43064,-0.19876 l 0.14079,0.008 q 0.0828,0 0.14907,0.0248 0.0663,0.0166 0.0911,0.0166 0.11595,0.058 0.19048,0.058 0.0745,0 0.24845,0.11594 0.0497,0.008 0.24845,0.14079 0.21533,0.14079 0.24845,0.15735 l 0.21533,0.0745 q 0.0911,0.0745 0.0911,0.0828 0,0.008 -0.0414,0.45549 z"
             style="font-style:normal;font-variant:normal;font-weight:normal;font-stretch:normal;font-family:'Caveat Brush';-inkscape-font-specification:'Caveat Brush';fill:#ffffff;stroke-width:0.20704219"
             id="path2319"
             inkscape:connector-curvature="0" />
          <path
             d="m 458.8408,528.32617 q 0,-0.0331 0.0166,-0.24845 -0.0663,-0.0994 -0.0663,-0.44721 -0.008,-0.88614 -0.008,-0.90271 0.008,-0.0166 -0.0166,-0.058 -0.0249,-0.0497 -0.0249,-0.0994 v -0.0911 q -0.0331,-0.27329 0.0331,-0.41408 0.0166,-0.0828 0.0911,-0.12423 0.058,-0.0828 0.16563,-0.0828 0.10766,0 0.1822,0.0248 0.058,-0.0248 0.10766,0.0663 0.0994,0.0414 0.10766,0.0414 l 0.0414,0.0331 q 0.0663,0 0.0828,0.0249 0.0248,0.0166 0.0331,0.0994 l 0.0745,0.7205 v 0.14079 q 0.0166,0.0994 0.0166,0.15735 l 0.008,0.38924 0.0331,0.008 q 0.0497,-0.19877 0.10766,-0.33127 0.0663,-0.14079 0.0828,-0.20704 0.008,-0.0663 0.058,-0.12423 0.0497,-0.0994 0.0497,-0.14079 0,-0.0414 0.0663,-0.10766 0.0745,-0.1822 0.14079,-0.26501 l 0.0248,-0.0663 q 0.0331,-0.0497 0.0497,-0.0828 0.0911,-0.0745 0.13251,-0.13251 l 0.0663,-0.0497 q 0.0166,0 0.0331,-0.0414 0.0166,-0.0497 0.21532,-0.058 0.15735,-0.0249 0.26502,0 0.0745,0 0.0911,0.008 l 0.0497,0.0497 0.0663,0.0166 q 0.14079,0.0745 0.18219,0.35612 0,0.56315 0.0414,0.74535 0.058,0.47205 0.19048,0.84473 0.14079,0.37268 0.2733,0.4969 0.17391,0.22361 0.0662,0.47206 -0.0745,0.12422 -0.19048,0.1325 -0.11594,0.008 -0.16563,-0.008 -0.0662,0 -0.10766,-0.0248 -0.0911,0.0248 -0.15736,-0.0414 -0.0745,0 -0.11594,-0.0745 -0.28986,-0.38095 -0.33955,-0.47205 -0.0414,-0.0911 -0.0662,-0.12423 -0.0166,-0.0331 -0.0249,-0.058 -0.008,-0.0248 -0.0248,-0.0745 -0.0166,-0.0745 -0.0663,-0.1325 -0.0414,-0.0663 -0.0414,-0.0994 -0.0249,-0.0414 -0.0331,-0.13251 -0.0497,-0.0331 -0.0497,-0.0828 -0.0414,-0.0248 -0.058,-0.14907 l -0.0331,-0.21532 -0.0166,-0.008 q -0.41409,0.52174 -0.47206,1.18428 -0.0166,0.16563 -0.0331,0.21532 -0.0414,0.0663 0.0331,0.20705 v 0.0497 q 0,0.0331 -0.0911,0.12422 -0.0994,0.008 -0.11594,0.008 h -0.0911 q -0.0166,0 -0.0662,0.0249 -0.0497,0 -0.0828,0.0166 -0.0331,0.0166 -0.0911,-0.008 -0.14907,-0.008 -0.17391,-0.0249 -0.0248,-0.008 -0.0745,-0.0248 -0.0497,-0.008 -0.0828,-0.0497 -0.0414,0 -0.058,-0.0497 -0.21532,-0.21533 -0.21532,-0.3644 v -0.058 l -0.008,-0.0663 q 0.0166,-0.13251 -0.0166,-0.24017 z"
             style="font-style:normal;font-variant:normal;font-weight:normal;font-stretch:normal;font-family:'Caveat Brush';-inkscape-font-specification:'Caveat Brush';fill:#ffffff;stroke-width:0.20704219"
             id="path2321"
             inkscape:connector-curvature="0" />
          <path
             d="m 463.53083,524.45862 h 0.0248 q 0.28986,0.0166 0.37268,0.17392 0.0911,0.14907 0.0662,0.28986 -0.0166,0.14079 -0.2236,0.34783 -0.19877,0.20704 -0.3644,0.19876 -0.0497,0 -0.19876,-0.0497 -0.14079,-0.0497 -0.14907,-0.058 -0.008,-0.0331 -0.0497,-0.0497 -0.21532,-0.0828 -0.24017,-0.42237 0,-0.0331 0.0497,-0.0497 -0.0331,0 -0.008,-0.0994 0.058,-0.1822 0.25673,-0.24017 0.25673,-0.0497 0.46378,-0.0414 z m -0.0166,2.09527 -0.14079,1.38304 q 0,0.0497 0,0.0994 0,0.0414 0.008,0.0745 -0.008,0.0331 -0.008,0.0828 v 0.59628 q 0.0331,0.28158 0,0.33127 -0.0497,0.0166 -0.11594,0.0497 -0.0662,0.0414 -0.25673,0.0166 -0.1822,-0.0166 -0.26502,-0.058 l -0.0994,-0.0248 q -0.0828,0 -0.10766,-0.0745 -0.10766,-0.0663 -0.11594,-0.17391 -0.0249,-0.0414 0.058,-0.11595 -0.008,-0.0414 -0.0331,-0.11594 -0.0248,-0.0828 -0.0166,-0.14907 0.0248,-0.0414 -0.0248,-0.12422 0,-0.0911 0.0248,-0.20705 0.0331,-0.0331 0.0166,-0.24017 0.058,-0.0828 0.058,-0.23188 -0.0331,-0.13251 0.0248,-0.26502 0.058,-0.1325 0.0662,-0.26501 0.0166,-0.20704 0.0745,-0.4058 0,-0.0828 0.0745,-0.26502 0.0828,-0.18219 0.10767,-0.21532 l 0.1325,-0.13251 0.14907,-0.058 h 0.008 q 0.0994,-0.0331 0.19876,0.008 0.24016,0.0911 0.28986,0.14079 -0.0331,0.0331 -0.0414,0.0994 -0.008,0.0662 -0.0166,0.11594 -0.0331,0.0414 -0.0497,0.12423 z"
             style="font-style:normal;font-variant:normal;font-weight:normal;font-stretch:normal;font-family:'Caveat Brush';-inkscape-font-specification:'Caveat Brush';fill:#ffffff;stroke-width:0.20704219"
             id="path2323"
             inkscape:connector-curvature="0" />
        </g>
      </g>
    </g>
    <g
       id="g2141"
       transform="translate(0,0.94494057)">
      <g
         id="g2400"
         inkscape:export-xdpi="96"
         inkscape:export-ydpi="96">
        <rect
           y="17.675598"
           x="16.630953"
           height="31.75"
           width="79.375"
           id="rect2101"
           style="opacity:0.89099995;fill:#ffffff;fill-opacity:1;stroke:none;stroke-width:1.14530313;stroke-miterlimit:4;stroke-dasharray:2.29060629, 1.14530314;stroke-dashoffset:0" />
        <g
           style="fill:#333333"
           id="g2115"
           transform="translate(-402.32259,-498.81431)">
          <g
             id="text2107"
             style="font-style:normal;font-weight:normal;font-size:16.18058205px;line-height:1.25;font-family:sans-serif;letter-spacing:0px;word-spacing:0px;fill:#333333;fill-opacity:1;stroke:none;stroke-width:0.40451452"
             aria-label="k   de">
            <path
               id="path2246"
               style="font-weight:bold;fill:#333333;stroke-width:0.40451452"
               d="m 443.16217,537.64501 q 0.0162,0.93847 0.0647,1.6666 0.0647,0.72812 0.17798,1.40771 -0.56632,0.21034 -1.19736,0.29125 -0.63104,0.0971 -1.56952,0.0971 -0.21034,-0.93847 -0.32361,-2.41091 -0.11326,-1.48861 -0.11326,-3.28465 0,-1.87695 0.11326,-4.10987 0.11327,-2.2491 0.29125,-3.20376 0.71195,0 1.86077,0.19417 1.14882,0.19417 1.6666,0.42069 -0.22653,0.79285 -0.46924,2.42709 -0.24271,1.61806 -0.37215,3.28466 0.45306,-0.48542 0.93847,-1.0841 0.48542,-0.59868 1.89313,-2.47563 0.59868,0.27507 1.21355,0.84139 0.61486,0.56632 0.93847,1.11646 -0.63104,0.79285 -1.47243,1.55334 -0.84139,0.74431 -1.97403,1.55333 0.61486,0.61487 1.42389,1.24591 0.80903,0.63104 2.20056,1.53715 -0.77667,0.93848 -1.35917,1.37535 -0.56632,0.4207 -1.21355,0.61487 -0.7443,-0.66341 -1.42389,-1.4239 -0.67958,-0.76048 -1.29444,-1.63423 z" />
            <path
               id="path2248"
               style="font-weight:bold;fill:#333333;stroke-width:0.40451452"
               d="m 467.97003,540.55751 q -0.46924,0.12945 -1.19736,0.22653 -0.71195,0.0971 -1.29445,0.0971 -0.0647,-0.32361 -0.14562,-0.76048 -0.0809,-0.43688 -0.16181,-1.05174 -0.35597,0.82521 -0.90611,1.21354 -0.53396,0.40452 -1.31063,0.40452 -1.42389,0 -2.20056,-1.05174 -0.77667,-1.05174 -0.77667,-2.92869 0,-2.37854 1.18119,-3.78625 1.19736,-1.4239 3.21993,-1.4239 0.0809,0 0.12945,0 0.0647,0 0.11326,0.0162 -0.0162,-0.71195 -0.0324,-1.37535 -0.0162,-0.67959 -0.0162,-1.27827 0.37215,-0.19417 1.05174,-0.30743 0.67958,-0.11327 1.39153,-0.11327 0.32361,0 0.63104,0.0324 0.30743,0.0324 0.61486,0.0971 -0.1618,1.13264 -0.25889,3.65681 -0.0809,2.52417 -0.0809,6.37515 0,0.45306 0,0.90611 0.0162,0.43688 0.0485,1.05174 z m -4.83799,-4.23931 q 0,1.03556 0.21034,1.5857 0.21035,0.53395 0.61487,0.53395 0.29125,0 0.53396,-0.48541 0.25888,-0.48542 0.40451,-1.37535 -0.0809,-1.11646 -0.12944,-1.87695 -0.0485,-0.77667 -0.0809,-1.44007 h -0.11326 q -0.66341,0 -1.05174,0.80903 -0.38833,0.79285 -0.38833,2.2491 z" />
            <path
               id="path2250"
               style="font-weight:bold;fill:#333333;stroke-width:0.40451452"
               d="m 472.79311,534.60306 q 0.19416,0.0485 0.37215,0.0809 0.19417,0.0162 0.32361,0.0162 0.12945,0 0.29125,0 0.17799,-0.0162 0.24271,-0.0324 0.0971,-0.38833 0.14563,-0.72813 0.0647,-0.33979 0.0647,-0.61486 0,-0.33979 -0.0971,-0.5016 -0.0809,-0.1618 -0.25889,-0.1618 -0.32361,0 -0.61487,0.53396 -0.29125,0.51777 -0.46923,1.40771 z m 1.95785,2.49181 q 0.61486,0.11326 1.2459,0.45305 0.64723,0.32361 1.05174,0.74431 -0.12944,0.42069 -0.59868,0.90611 -0.46924,0.48542 -1.11646,0.80903 -0.51778,0.25889 -1.13264,0.38834 -0.59868,0.14562 -1.26209,0.14562 -1.68278,0 -2.63743,-0.97083 -0.93848,-0.98702 -0.93848,-2.6698 0,-1.05174 0.32362,-2.05493 0.33979,-1.01938 0.95465,-1.84459 0.69577,-0.92229 1.60188,-1.44007 0.90611,-0.51778 1.86077,-0.51778 1.35916,0 2.16819,0.69576 0.80903,0.67959 0.80903,1.82841 0,0.51778 -0.11326,1.14882 -0.0971,0.61486 -0.25889,1.06792 -0.5016,0.24271 -1.24591,0.37215 -0.72812,0.11327 -1.7475,0.11327 -0.29125,0 -0.5825,-0.0324 -0.27507,-0.0324 -0.55014,-0.0809 -0.0162,0.0971 -0.0162,0.22653 0,0.11326 0,0.35597 0,0.97084 0.24271,1.48862 0.25889,0.51778 0.72812,0.51778 0.30744,0 0.66341,-0.5016 0.35597,-0.5016 0.55014,-1.14882 z" />
          </g>
          <path
             style="fill:#333333;fill-opacity:1;stroke:none;stroke-width:0.86064708;stroke-miterlimit:4;stroke-dasharray:none;stroke-dashoffset:0"
             d="m 453.81687,530.32254 c -2.8122,0 -5.07601,2.26409 -5.07601,5.07628 0,2.8122 2.26381,5.07601 5.07601,5.07601 2.81219,0 5.07628,-2.26381 5.07628,-5.07601 0,-2.81219 -2.26409,-5.07628 -5.07628,-5.07628 z m 1.20807,2.44886 1.88557,4.11796 -6.18756,-2.85618 z m -2.73186,2.22993 3.21715,1.52487 -2.33707,1.42917 -0.41577,-1.19143 -0.41224,0.074 -0.03,-1.05374 z"
             id="path2109"
             inkscape:connector-curvature="0" />
          <g
             id="text2113"
             style="font-style:normal;font-weight:normal;font-size:8.28168583px;line-height:1.25;font-family:sans-serif;letter-spacing:0px;word-spacing:0px;fill:#333333;fill-opacity:1;stroke:none;stroke-width:0.20704219"
             aria-label="Petani">
            <path
               id="path2253"
               style="font-style:normal;font-variant:normal;font-weight:normal;font-stretch:normal;font-family:'Caveat Brush';-inkscape-font-specification:'Caveat Brush';fill:#333333;stroke-width:0.20704219"
               d="M 447.29212,524.68223 Q 447.0768,524.558 446.45567,524.558 l 0.0497,0.51347 q 0.0663,0.44721 0.11595,1.6729 0.0745,-0.0166 0.0994,-0.0414 0.0663,-0.0497 0.14079,-0.0497 0.10766,-0.0249 0.20704,-0.14907 0.24845,-0.20704 0.38095,-0.34783 l 0.2733,-0.31471 q 0.0248,-0.008 0.0828,-0.18219 0.058,-0.1822 0.0745,-0.29814 0,-0.24017 -0.0497,-0.2733 0,-0.0166 -0.0994,-0.20704 -0.0331,-0.0249 -0.19876,-0.12423 z m -1.71431,-0.9524 0.46378,-0.0662 0.59628,-0.0414 0.3147,0.0414 q 0.0331,0.0331 0.15736,0.0414 0.24016,-0.008 0.64597,0.2733 0.0994,0.0331 0.16563,0.11594 l 0.3147,0.38096 q 0.0166,0.0166 0.0497,0.0911 0.0331,0.0663 0.0911,0.15736 -0.0166,0 0.0248,0.0662 0.10766,0.1822 0.0994,0.21532 0.0414,0.0331 0.0828,0.21533 0.0414,0.1822 0.0248,0.24845 0.008,0.008 -0.0166,0.19048 -0.058,0.39752 -0.20704,0.588 l -0.10767,0.19876 -0.18219,0.26501 -0.10767,0.0994 q -0.29814,0.33127 -0.72878,0.51347 -0.0166,0.008 -0.0497,0.0166 l -0.19876,0.0662 -0.32299,0.0828 q 0,0.24017 0.058,1.10975 0.0331,0.29814 0.0497,0.33126 0,0.2733 -0.0331,0.3644 -0.0331,0.0994 -0.10766,0.14079 -0.0745,0.0497 -0.25673,0.058 -0.0497,0.0166 -0.17391,-0.0331 -0.12423,-0.0414 -0.19877,-0.13251 l -0.0497,-0.26501 q 0.0166,-0.0166 -0.0497,-0.15735 -0.058,-0.0663 -0.0911,-0.23189 l -0.058,-0.78676 -0.008,-0.26501 q -0.48034,0.0331 -0.57972,-0.26502 -0.0828,-0.15735 -0.0331,-0.20704 l 0.0414,-0.10766 q 0.0994,-0.15735 0.38095,-0.15735 h 0.17392 q -0.0166,-0.0166 -0.0166,-0.11595 l -0.0331,-0.34783 v -0.14907 l -0.008,-0.10766 q 0.008,-0.0745 -0.008,-0.16563 v -0.0497 l -0.0166,-0.20705 v -0.15735 l -0.008,-0.0828 q 0,-0.588 -0.0663,-0.74536 -0.2733,0.15736 -0.3644,0.17392 -0.0911,0.008 -0.30642,-0.12423 -0.0911,-0.0745 -0.0994,-0.16563 -0.14907,-0.20704 -0.0994,-0.33955 0.0166,-0.0663 0.13251,-0.20704 0.008,-0.0331 0.19876,-0.14907 0.14907,-0.14907 0.52174,-0.21533 z" />
            <path
               id="path2255"
               style="font-style:normal;font-variant:normal;font-weight:normal;font-stretch:normal;font-family:'Caveat Brush';-inkscape-font-specification:'Caveat Brush';fill:#333333;stroke-width:0.20704219"
               d="m 450.6528,526.49592 q 0.0331,-0.12423 -0.008,-0.31471 -0.058,-0.0497 -0.15735,-0.0497 -0.12422,0 -0.2236,0.23189 -0.13251,0.19876 -0.19876,0.43893 h -0.008 q -0.0911,0.34783 -0.0911,0.37268 0.13251,0.0331 0.21533,0.0331 0.0828,-0.008 0.19048,-0.0911 0.19048,-0.18219 0.28157,-0.62112 z m -0.0248,1.19256 -0.30642,0.0249 q -0.25673,0 -0.40581,-0.0497 l 0.0249,0.15735 q 0.0248,0.68738 0.38096,0.9027 0.0994,0.0414 0.16563,0.0414 0.0663,0 0.17392,-0.0662 0.0331,-0.0331 0.058,-0.0911 0.008,-0.0745 0.0828,-0.0663 0.33954,-0.43064 0.51346,-0.33955 0.17392,0.11595 0.17392,0.1822 0,0.0331 -0.0414,0.0745 v 0.0497 q 0,0.0828 -0.10767,0.29814 -0.0994,0.21532 -0.21532,0.36439 -0.058,0.12423 -0.14907,0.17392 -0.26501,0.16563 -0.56315,0.1325 -0.0663,-0.008 -0.0911,-0.0331 -0.0663,-0.0166 -0.0994,-0.008 l -0.0663,-0.008 q -0.0745,0 -0.12422,-0.0331 -0.0828,-0.0497 -0.11595,-0.0497 -0.21532,-0.0828 -0.26501,-0.12423 -0.0414,-0.0414 -0.0745,-0.058 -0.0331,-0.0166 -0.15736,-0.17391 -0.10766,-0.0911 -0.12422,-0.11595 -0.0497,-0.0745 -0.0911,-0.10766 -0.0331,-0.0331 -0.0414,-0.14907 -0.0331,-0.0414 -0.0331,-0.10766 l -0.0331,-0.0663 q 0,-0.058 -0.0497,-0.0911 -0.0497,-0.0497 -0.0497,-0.12423 v -0.0663 q -0.0331,-0.0166 -0.0166,-0.0994 v -0.21533 l -0.008,-0.0745 v -0.058 q -0.008,-0.0331 0.0166,-0.14079 l -0.008,-0.0745 q 0.008,-0.008 0.0249,-0.13251 0.0331,-0.17391 0.0745,-0.21532 v -0.0745 q 0.008,-0.0249 0.008,-0.0663 0,-0.0414 0.0166,-0.0911 0.0248,-0.0497 0.13251,-0.37267 l 0.1325,-0.28986 q 0.058,-0.12423 0.1822,-0.2733 0.008,-0.0414 0.0663,-0.14907 l 0.10767,-0.0994 q 0.0497,-0.0745 0.14907,-0.10766 0.11594,-0.058 0.17391,-0.058 l 0.23189,-0.0331 q 0.0414,0.008 0.058,0.008 h 0.10766 q 0.1822,0.0166 0.29814,0.0745 0.24845,0.0745 0.3644,0.19048 0.25673,0.28986 0.25673,0.55487 0,0.26501 -0.0828,0.45549 -0.20704,0.47206 -0.29814,0.59628 -0.14907,0.2733 -0.35611,0.2733 z" />
            <path
               id="path2257"
               style="font-style:normal;font-variant:normal;font-weight:normal;font-stretch:normal;font-family:'Caveat Brush';-inkscape-font-specification:'Caveat Brush';fill:#333333;stroke-width:0.20704219"
               d="m 452.7055,526.22262 0.008,-0.0745 q -0.17392,-0.0166 -0.24845,-0.0249 -0.0662,-0.0166 -0.22361,-0.0331 -0.15735,-0.0166 -0.24845,-0.0497 -0.17391,-0.058 -0.19876,-0.29814 -0.0248,-0.24845 0.15735,-0.30642 0.16564,-0.0414 0.23189,-0.0414 0.0663,0 0.24845,-0.0166 0.0911,-0.0497 0.24845,-0.058 l 0.12423,-0.0331 q 0,0.008 0.0662,-0.0166 l 0.0414,-0.17392 q 0,-0.1325 0.0745,-0.26501 0,-0.058 0.10766,-0.32299 0,-0.0331 0.14907,-0.48033 0.0331,-0.0414 0.24845,-0.19048 0.13251,-0.0663 0.37267,0.0911 0.13251,0.058 0.1822,0.15735 -0.0497,0.0497 -0.0497,0.23188 -0.008,0.058 -0.11594,0.61285 v 0.23189 q 0.0662,0.008 0.21532,0.0414 0.15735,0.0331 0.37268,0.0745 0.41408,0.0828 0.52174,0.33127 0.0414,0.18219 -0.0166,0.25673 -0.058,0.0745 -0.28158,0.10766 -0.18219,0.008 -0.48034,0.008 -0.28985,0 -0.43064,0.0414 -0.0166,0.14907 -0.0166,0.23189 l -0.008,0.12422 q 0,0.058 -0.0745,0.61285 -0.0497,0.0745 -0.0828,0.7702 v 0.60456 q 0,0.14907 0.0249,0.28158 0.008,0.18219 0.0414,0.25673 0,0.0745 0.0414,0.3147 -0.0994,0.24017 -0.33127,0.24017 -0.2236,0 -0.39752,-0.16563 l -0.0911,-0.13251 q -0.0249,-0.0662 -0.0414,-0.0911 -0.008,-0.0248 -0.0166,-0.058 -0.058,-0.16563 -0.0911,-0.20704 -0.0497,-0.0663 -0.0497,-0.0994 0,-0.0331 0,-0.0828 -0.0166,-0.14079 -0.0414,-0.24017 -0.0414,-0.0414 -0.0414,-0.28158 0.0166,-0.43892 0,-0.50518 0.0248,-0.0248 0.008,-0.3147 l 0.0248,-0.1822 q 0,-0.0331 0.0331,-0.24845 -0.0166,-0.0331 -0.008,-0.17392 0.008,-0.14907 0.0248,-0.20704 0.0166,-0.0994 0.0166,-0.24845 z" />
            <path
               id="path2259"
               style="font-style:normal;font-variant:normal;font-weight:normal;font-stretch:normal;font-family:'Caveat Brush';-inkscape-font-specification:'Caveat Brush';fill:#333333;stroke-width:0.20704219"
               d="m 456.76029,526.98454 q 0.008,-0.0249 0.0331,-0.28986 -0.0166,-0.0248 -0.0414,-0.1822 -0.0663,-0.13251 -0.17392,-0.19876 -0.1325,-0.058 -0.15735,-0.058 -0.0745,0.0248 -0.10766,0.058 -0.0249,0.0249 -0.14079,0.23189 -0.10766,0.20704 -0.1822,0.68738 -0.0663,0.48034 -0.0663,0.69566 0,0.21532 0.0166,0.53003 0.0166,0.30642 0.13251,0.28986 0.10766,-0.0166 0.29814,-0.59629 0.008,-0.0414 0.058,-0.14907 z m 0.96896,-0.33955 q 0,0.43893 0.0911,0.80332 0.0414,0.3644 0.14907,0.77848 0.0248,0.16563 0.0166,0.16563 0.20704,0.4555 0.23189,0.54659 0.0248,0.0828 -0.008,0.14079 v -0.008 q -0.0248,0.0745 -0.15735,0.13251 -0.12422,0.0662 -0.2236,0.0828 -0.31471,0.0994 -0.37268,-0.24017 -0.0331,-0.0249 -0.0994,-0.0994 -0.058,-0.0828 -0.0662,-0.13251 -0.008,-0.058 -0.058,-0.10766 -0.0166,-0.0414 -0.0745,-0.10766 -0.058,-0.0663 -0.0662,-0.13251 l -0.0249,-0.22361 -0.0166,-0.008 q -0.13251,0.2733 -0.17392,0.38096 -0.0994,0.28158 -0.34783,0.64597 -0.28158,0.3147 -0.68738,0.1822 -0.14907,-0.008 -0.24017,-0.0911 -0.0828,-0.0828 -0.11594,-0.0911 -0.0497,-0.0166 -0.14079,-0.12422 -0.14907,-0.19877 -0.1822,-0.588 v -0.21533 q 0.0249,-0.0414 0,-0.39752 v -0.0497 q -0.0497,-0.24845 -0.0497,-0.29814 0,-0.0497 0.0166,-0.13251 0.0166,-0.0828 0.008,-0.0994 -0.008,-0.0248 -0.008,-0.0745 v -0.12423 l 0.0414,-0.44721 q 0.0911,-0.28986 0.19876,-0.52174 0.0331,-0.14079 0.12422,-0.22361 0.20704,-0.22361 0.22361,-0.25673 0.058,-0.12423 0.43064,-0.19876 l 0.14079,0.008 q 0.0828,0 0.14907,0.0248 0.0663,0.0166 0.0911,0.0166 0.11595,0.058 0.19048,0.058 0.0745,0 0.24845,0.11594 0.0497,0.008 0.24845,0.14079 0.21533,0.14079 0.24845,0.15735 l 0.21533,0.0745 q 0.0911,0.0745 0.0911,0.0828 0,0.008 -0.0414,0.45549 z" />
            <path
               id="path2261"
               style="font-style:normal;font-variant:normal;font-weight:normal;font-stretch:normal;font-family:'Caveat Brush';-inkscape-font-specification:'Caveat Brush';fill:#333333;stroke-width:0.20704219"
               d="m 458.8408,528.32617 q 0,-0.0331 0.0166,-0.24845 -0.0663,-0.0994 -0.0663,-0.44721 -0.008,-0.88614 -0.008,-0.90271 0.008,-0.0166 -0.0166,-0.058 -0.0249,-0.0497 -0.0249,-0.0994 v -0.0911 q -0.0331,-0.27329 0.0331,-0.41408 0.0166,-0.0828 0.0911,-0.12423 0.058,-0.0828 0.16563,-0.0828 0.10766,0 0.1822,0.0248 0.058,-0.0248 0.10766,0.0663 0.0994,0.0414 0.10766,0.0414 l 0.0414,0.0331 q 0.0663,0 0.0828,0.0249 0.0248,0.0166 0.0331,0.0994 l 0.0745,0.7205 v 0.14079 q 0.0166,0.0994 0.0166,0.15735 l 0.008,0.38924 0.0331,0.008 q 0.0497,-0.19877 0.10766,-0.33127 0.0663,-0.14079 0.0828,-0.20704 0.008,-0.0663 0.058,-0.12423 0.0497,-0.0994 0.0497,-0.14079 0,-0.0414 0.0663,-0.10766 0.0745,-0.1822 0.14079,-0.26501 l 0.0248,-0.0663 q 0.0331,-0.0497 0.0497,-0.0828 0.0911,-0.0745 0.13251,-0.13251 l 0.0663,-0.0497 q 0.0166,0 0.0331,-0.0414 0.0166,-0.0497 0.21532,-0.058 0.15735,-0.0249 0.26502,0 0.0745,0 0.0911,0.008 l 0.0497,0.0497 0.0663,0.0166 q 0.14079,0.0745 0.18219,0.35612 0,0.56315 0.0414,0.74535 0.058,0.47205 0.19048,0.84473 0.14079,0.37268 0.2733,0.4969 0.17391,0.22361 0.0662,0.47206 -0.0745,0.12422 -0.19048,0.1325 -0.11594,0.008 -0.16563,-0.008 -0.0662,0 -0.10766,-0.0248 -0.0911,0.0248 -0.15736,-0.0414 -0.0745,0 -0.11594,-0.0745 -0.28986,-0.38095 -0.33955,-0.47205 -0.0414,-0.0911 -0.0662,-0.12423 -0.0166,-0.0331 -0.0249,-0.058 -0.008,-0.0248 -0.0248,-0.0745 -0.0166,-0.0745 -0.0663,-0.1325 -0.0414,-0.0663 -0.0414,-0.0994 -0.0249,-0.0414 -0.0331,-0.13251 -0.0497,-0.0331 -0.0497,-0.0828 -0.0414,-0.0248 -0.058,-0.14907 l -0.0331,-0.21532 -0.0166,-0.008 q -0.41409,0.52174 -0.47206,1.18428 -0.0166,0.16563 -0.0331,0.21532 -0.0414,0.0663 0.0331,0.20705 v 0.0497 q 0,0.0331 -0.0911,0.12422 -0.0994,0.008 -0.11594,0.008 h -0.0911 q -0.0166,0 -0.0662,0.0249 -0.0497,0 -0.0828,0.0166 -0.0331,0.0166 -0.0911,-0.008 -0.14907,-0.008 -0.17391,-0.0249 -0.0248,-0.008 -0.0745,-0.0248 -0.0497,-0.008 -0.0828,-0.0497 -0.0414,0 -0.058,-0.0497 -0.21532,-0.21533 -0.21532,-0.3644 v -0.058 l -0.008,-0.0663 q 0.0166,-0.13251 -0.0166,-0.24017 z" />
            <path
               id="path2263"
               style="font-style:normal;font-variant:normal;font-weight:normal;font-stretch:normal;font-family:'Caveat Brush';-inkscape-font-specification:'Caveat Brush';fill:#333333;stroke-width:0.20704219"
               d="m 463.53083,524.45862 h 0.0248 q 0.28986,0.0166 0.37268,0.17392 0.0911,0.14907 0.0662,0.28986 -0.0166,0.14079 -0.2236,0.34783 -0.19877,0.20704 -0.3644,0.19876 -0.0497,0 -0.19876,-0.0497 -0.14079,-0.0497 -0.14907,-0.058 -0.008,-0.0331 -0.0497,-0.0497 -0.21532,-0.0828 -0.24017,-0.42237 0,-0.0331 0.0497,-0.0497 -0.0331,0 -0.008,-0.0994 0.058,-0.1822 0.25673,-0.24017 0.25673,-0.0497 0.46378,-0.0414 z m -0.0166,2.09527 -0.14079,1.38304 q 0,0.0497 0,0.0994 0,0.0414 0.008,0.0745 -0.008,0.0331 -0.008,0.0828 v 0.59628 q 0.0331,0.28158 0,0.33127 -0.0497,0.0166 -0.11594,0.0497 -0.0662,0.0414 -0.25673,0.0166 -0.1822,-0.0166 -0.26502,-0.058 l -0.0994,-0.0248 q -0.0828,0 -0.10766,-0.0745 -0.10766,-0.0663 -0.11594,-0.17391 -0.0249,-0.0414 0.058,-0.11595 -0.008,-0.0414 -0.0331,-0.11594 -0.0248,-0.0828 -0.0166,-0.14907 0.0248,-0.0414 -0.0248,-0.12422 0,-0.0911 0.0248,-0.20705 0.0331,-0.0331 0.0166,-0.24017 0.058,-0.0828 0.058,-0.23188 -0.0331,-0.13251 0.0248,-0.26502 0.058,-0.1325 0.0662,-0.26501 0.0166,-0.20704 0.0745,-0.4058 0,-0.0828 0.0745,-0.26502 0.0828,-0.18219 0.10767,-0.21532 l 0.1325,-0.13251 0.14907,-0.058 h 0.008 q 0.0994,-0.0331 0.19876,0.008 0.24016,0.0911 0.28986,0.14079 -0.0331,0.0331 -0.0414,0.0994 -0.008,0.0662 -0.0166,0.11594 -0.0331,0.0414 -0.0497,0.12423 z" />
          </g>
        </g>
      </g>
    </g>
    <g
       id="g2151"
       transform="translate(-4.9136905,-0.94494057)">
      <rect
         y="19.565479"
         x="123.22024"
         height="31.75"
         width="79.375"
         id="rect2117"
         style="opacity:1;fill:none;fill-opacity:1;stroke:none;stroke-width:1.14530313;stroke-miterlimit:4;stroke-dasharray:2.29060629, 1.14530314;stroke-dashoffset:0" />
      <g
         style="fill:#008080"
         id="g2131"
         transform="translate(-295.7333,-496.92443)">
        <g
           aria-label="k   de"
           style="font-style:normal;font-weight:normal;font-size:16.18058205px;line-height:1.25;font-family:sans-serif;letter-spacing:0px;word-spacing:0px;fill:#008080;fill-opacity:1;stroke:none;stroke-width:0.40451452"
           id="text2123">
          <path
             d="m 443.16217,537.64501 q 0.0162,0.93847 0.0647,1.6666 0.0647,0.72812 0.17798,1.40771 -0.56632,0.21034 -1.19736,0.29125 -0.63104,0.0971 -1.56952,0.0971 -0.21034,-0.93847 -0.32361,-2.41091 -0.11326,-1.48861 -0.11326,-3.28465 0,-1.87695 0.11326,-4.10987 0.11327,-2.2491 0.29125,-3.20376 0.71195,0 1.86077,0.19417 1.14882,0.19417 1.6666,0.42069 -0.22653,0.79285 -0.46924,2.42709 -0.24271,1.61806 -0.37215,3.28466 0.45306,-0.48542 0.93847,-1.0841 0.48542,-0.59868 1.89313,-2.47563 0.59868,0.27507 1.21355,0.84139 0.61486,0.56632 0.93847,1.11646 -0.63104,0.79285 -1.47243,1.55334 -0.84139,0.74431 -1.97403,1.55333 0.61486,0.61487 1.42389,1.24591 0.80903,0.63104 2.20056,1.53715 -0.77667,0.93848 -1.35917,1.37535 -0.56632,0.4207 -1.21355,0.61487 -0.7443,-0.66341 -1.42389,-1.4239 -0.67958,-0.76048 -1.29444,-1.63423 z"
             style="font-weight:bold;fill:#008080;stroke-width:0.40451452"
             id="path2279" />
          <path
             d="m 467.97003,540.55751 q -0.46924,0.12945 -1.19736,0.22653 -0.71195,0.0971 -1.29445,0.0971 -0.0647,-0.32361 -0.14562,-0.76048 -0.0809,-0.43688 -0.16181,-1.05174 -0.35597,0.82521 -0.90611,1.21354 -0.53396,0.40452 -1.31063,0.40452 -1.42389,0 -2.20056,-1.05174 -0.77667,-1.05174 -0.77667,-2.92869 0,-2.37854 1.18119,-3.78625 1.19736,-1.4239 3.21993,-1.4239 0.0809,0 0.12945,0 0.0647,0 0.11326,0.0162 -0.0162,-0.71195 -0.0324,-1.37535 -0.0162,-0.67959 -0.0162,-1.27827 0.37215,-0.19417 1.05174,-0.30743 0.67958,-0.11327 1.39153,-0.11327 0.32361,0 0.63104,0.0324 0.30743,0.0324 0.61486,0.0971 -0.1618,1.13264 -0.25889,3.65681 -0.0809,2.52417 -0.0809,6.37515 0,0.45306 0,0.90611 0.0162,0.43688 0.0485,1.05174 z m -4.83799,-4.23931 q 0,1.03556 0.21034,1.5857 0.21035,0.53395 0.61487,0.53395 0.29125,0 0.53396,-0.48541 0.25888,-0.48542 0.40451,-1.37535 -0.0809,-1.11646 -0.12944,-1.87695 -0.0485,-0.77667 -0.0809,-1.44007 h -0.11326 q -0.66341,0 -1.05174,0.80903 -0.38833,0.79285 -0.38833,2.2491 z"
             style="font-weight:bold;fill:#008080;stroke-width:0.40451452"
             id="path2281" />
          <path
             d="m 472.79311,534.60306 q 0.19416,0.0485 0.37215,0.0809 0.19417,0.0162 0.32361,0.0162 0.12945,0 0.29125,0 0.17799,-0.0162 0.24271,-0.0324 0.0971,-0.38833 0.14563,-0.72813 0.0647,-0.33979 0.0647,-0.61486 0,-0.33979 -0.0971,-0.5016 -0.0809,-0.1618 -0.25889,-0.1618 -0.32361,0 -0.61487,0.53396 -0.29125,0.51777 -0.46923,1.40771 z m 1.95785,2.49181 q 0.61486,0.11326 1.2459,0.45305 0.64723,0.32361 1.05174,0.74431 -0.12944,0.42069 -0.59868,0.90611 -0.46924,0.48542 -1.11646,0.80903 -0.51778,0.25889 -1.13264,0.38834 -0.59868,0.14562 -1.26209,0.14562 -1.68278,0 -2.63743,-0.97083 -0.93848,-0.98702 -0.93848,-2.6698 0,-1.05174 0.32362,-2.05493 0.33979,-1.01938 0.95465,-1.84459 0.69577,-0.92229 1.60188,-1.44007 0.90611,-0.51778 1.86077,-0.51778 1.35916,0 2.16819,0.69576 0.80903,0.67959 0.80903,1.82841 0,0.51778 -0.11326,1.14882 -0.0971,0.61486 -0.25889,1.06792 -0.5016,0.24271 -1.24591,0.37215 -0.72812,0.11327 -1.7475,0.11327 -0.29125,0 -0.5825,-0.0324 -0.27507,-0.0324 -0.55014,-0.0809 -0.0162,0.0971 -0.0162,0.22653 0,0.11326 0,0.35597 0,0.97084 0.24271,1.48862 0.25889,0.51778 0.72812,0.51778 0.30744,0 0.66341,-0.5016 0.35597,-0.5016 0.55014,-1.14882 z"
             style="font-weight:bold;fill:#008080;stroke-width:0.40451452"
             id="path2283" />
        </g>
        <path
           style="fill:#008080;fill-opacity:1;stroke:none;stroke-width:0.86064708;stroke-miterlimit:4;stroke-dasharray:none;stroke-dashoffset:0"
           d="m 453.81687,530.32254 c -2.8122,0 -5.07601,2.26409 -5.07601,5.07628 0,2.8122 2.26381,5.07601 5.07601,5.07601 2.81219,0 5.07628,-2.26381 5.07628,-5.07601 0,-2.81219 -2.26409,-5.07628 -5.07628,-5.07628 z m 1.20807,2.44886 1.88557,4.11796 -6.18756,-2.85618 z m -2.73186,2.22993 3.21715,1.52487 -2.33707,1.42917 -0.41577,-1.19143 -0.41224,0.074 -0.03,-1.05374 z"
           id="path2125"
           inkscape:connector-curvature="0" />
        <g
           aria-label="Petani"
           style="font-style:normal;font-weight:normal;font-size:8.28168583px;line-height:1.25;font-family:sans-serif;letter-spacing:0px;word-spacing:0px;fill:#008080;fill-opacity:1;stroke:none;stroke-width:0.20704219"
           id="text2129">
          <path
             d="M 447.29212,524.68223 Q 447.0768,524.558 446.45567,524.558 l 0.0497,0.51347 q 0.0663,0.44721 0.11595,1.6729 0.0745,-0.0166 0.0994,-0.0414 0.0663,-0.0497 0.14079,-0.0497 0.10766,-0.0249 0.20704,-0.14907 0.24845,-0.20704 0.38095,-0.34783 l 0.2733,-0.31471 q 0.0248,-0.008 0.0828,-0.18219 0.058,-0.1822 0.0745,-0.29814 0,-0.24017 -0.0497,-0.2733 0,-0.0166 -0.0994,-0.20704 -0.0331,-0.0249 -0.19876,-0.12423 z m -1.71431,-0.9524 0.46378,-0.0662 0.59628,-0.0414 0.3147,0.0414 q 0.0331,0.0331 0.15736,0.0414 0.24016,-0.008 0.64597,0.2733 0.0994,0.0331 0.16563,0.11594 l 0.3147,0.38096 q 0.0166,0.0166 0.0497,0.0911 0.0331,0.0663 0.0911,0.15736 -0.0166,0 0.0248,0.0662 0.10766,0.1822 0.0994,0.21532 0.0414,0.0331 0.0828,0.21533 0.0414,0.1822 0.0248,0.24845 0.008,0.008 -0.0166,0.19048 -0.058,0.39752 -0.20704,0.588 l -0.10767,0.19876 -0.18219,0.26501 -0.10767,0.0994 q -0.29814,0.33127 -0.72878,0.51347 -0.0166,0.008 -0.0497,0.0166 l -0.19876,0.0662 -0.32299,0.0828 q 0,0.24017 0.058,1.10975 0.0331,0.29814 0.0497,0.33126 0,0.2733 -0.0331,0.3644 -0.0331,0.0994 -0.10766,0.14079 -0.0745,0.0497 -0.25673,0.058 -0.0497,0.0166 -0.17391,-0.0331 -0.12423,-0.0414 -0.19877,-0.13251 l -0.0497,-0.26501 q 0.0166,-0.0166 -0.0497,-0.15735 -0.058,-0.0663 -0.0911,-0.23189 l -0.058,-0.78676 -0.008,-0.26501 q -0.48034,0.0331 -0.57972,-0.26502 -0.0828,-0.15735 -0.0331,-0.20704 l 0.0414,-0.10766 q 0.0994,-0.15735 0.38095,-0.15735 h 0.17392 q -0.0166,-0.0166 -0.0166,-0.11595 l -0.0331,-0.34783 v -0.14907 l -0.008,-0.10766 q 0.008,-0.0745 -0.008,-0.16563 v -0.0497 l -0.0166,-0.20705 v -0.15735 l -0.008,-0.0828 q 0,-0.588 -0.0663,-0.74536 -0.2733,0.15736 -0.3644,0.17392 -0.0911,0.008 -0.30642,-0.12423 -0.0911,-0.0745 -0.0994,-0.16563 -0.14907,-0.20704 -0.0994,-0.33955 0.0166,-0.0663 0.13251,-0.20704 0.008,-0.0331 0.19876,-0.14907 0.14907,-0.14907 0.52174,-0.21533 z"
             style="font-style:normal;font-variant:normal;font-weight:normal;font-stretch:normal;font-family:'Caveat Brush';-inkscape-font-specification:'Caveat Brush';fill:#008080;stroke-width:0.20704219"
             id="path2266" />
          <path
             d="m 450.6528,526.49592 q 0.0331,-0.12423 -0.008,-0.31471 -0.058,-0.0497 -0.15735,-0.0497 -0.12422,0 -0.2236,0.23189 -0.13251,0.19876 -0.19876,0.43893 h -0.008 q -0.0911,0.34783 -0.0911,0.37268 0.13251,0.0331 0.21533,0.0331 0.0828,-0.008 0.19048,-0.0911 0.19048,-0.18219 0.28157,-0.62112 z m -0.0248,1.19256 -0.30642,0.0249 q -0.25673,0 -0.40581,-0.0497 l 0.0249,0.15735 q 0.0248,0.68738 0.38096,0.9027 0.0994,0.0414 0.16563,0.0414 0.0663,0 0.17392,-0.0662 0.0331,-0.0331 0.058,-0.0911 0.008,-0.0745 0.0828,-0.0663 0.33954,-0.43064 0.51346,-0.33955 0.17392,0.11595 0.17392,0.1822 0,0.0331 -0.0414,0.0745 v 0.0497 q 0,0.0828 -0.10767,0.29814 -0.0994,0.21532 -0.21532,0.36439 -0.058,0.12423 -0.14907,0.17392 -0.26501,0.16563 -0.56315,0.1325 -0.0663,-0.008 -0.0911,-0.0331 -0.0663,-0.0166 -0.0994,-0.008 l -0.0663,-0.008 q -0.0745,0 -0.12422,-0.0331 -0.0828,-0.0497 -0.11595,-0.0497 -0.21532,-0.0828 -0.26501,-0.12423 -0.0414,-0.0414 -0.0745,-0.058 -0.0331,-0.0166 -0.15736,-0.17391 -0.10766,-0.0911 -0.12422,-0.11595 -0.0497,-0.0745 -0.0911,-0.10766 -0.0331,-0.0331 -0.0414,-0.14907 -0.0331,-0.0414 -0.0331,-0.10766 l -0.0331,-0.0663 q 0,-0.058 -0.0497,-0.0911 -0.0497,-0.0497 -0.0497,-0.12423 v -0.0663 q -0.0331,-0.0166 -0.0166,-0.0994 v -0.21533 l -0.008,-0.0745 v -0.058 q -0.008,-0.0331 0.0166,-0.14079 l -0.008,-0.0745 q 0.008,-0.008 0.0249,-0.13251 0.0331,-0.17391 0.0745,-0.21532 v -0.0745 q 0.008,-0.0249 0.008,-0.0663 0,-0.0414 0.0166,-0.0911 0.0248,-0.0497 0.13251,-0.37267 l 0.1325,-0.28986 q 0.058,-0.12423 0.1822,-0.2733 0.008,-0.0414 0.0663,-0.14907 l 0.10767,-0.0994 q 0.0497,-0.0745 0.14907,-0.10766 0.11594,-0.058 0.17391,-0.058 l 0.23189,-0.0331 q 0.0414,0.008 0.058,0.008 h 0.10766 q 0.1822,0.0166 0.29814,0.0745 0.24845,0.0745 0.3644,0.19048 0.25673,0.28986 0.25673,0.55487 0,0.26501 -0.0828,0.45549 -0.20704,0.47206 -0.29814,0.59628 -0.14907,0.2733 -0.35611,0.2733 z"
             style="font-style:normal;font-variant:normal;font-weight:normal;font-stretch:normal;font-family:'Caveat Brush';-inkscape-font-specification:'Caveat Brush';fill:#008080;stroke-width:0.20704219"
             id="path2268" />
          <path
             d="m 452.7055,526.22262 0.008,-0.0745 q -0.17392,-0.0166 -0.24845,-0.0249 -0.0662,-0.0166 -0.22361,-0.0331 -0.15735,-0.0166 -0.24845,-0.0497 -0.17391,-0.058 -0.19876,-0.29814 -0.0248,-0.24845 0.15735,-0.30642 0.16564,-0.0414 0.23189,-0.0414 0.0663,0 0.24845,-0.0166 0.0911,-0.0497 0.24845,-0.058 l 0.12423,-0.0331 q 0,0.008 0.0662,-0.0166 l 0.0414,-0.17392 q 0,-0.1325 0.0745,-0.26501 0,-0.058 0.10766,-0.32299 0,-0.0331 0.14907,-0.48033 0.0331,-0.0414 0.24845,-0.19048 0.13251,-0.0663 0.37267,0.0911 0.13251,0.058 0.1822,0.15735 -0.0497,0.0497 -0.0497,0.23188 -0.008,0.058 -0.11594,0.61285 v 0.23189 q 0.0662,0.008 0.21532,0.0414 0.15735,0.0331 0.37268,0.0745 0.41408,0.0828 0.52174,0.33127 0.0414,0.18219 -0.0166,0.25673 -0.058,0.0745 -0.28158,0.10766 -0.18219,0.008 -0.48034,0.008 -0.28985,0 -0.43064,0.0414 -0.0166,0.14907 -0.0166,0.23189 l -0.008,0.12422 q 0,0.058 -0.0745,0.61285 -0.0497,0.0745 -0.0828,0.7702 v 0.60456 q 0,0.14907 0.0249,0.28158 0.008,0.18219 0.0414,0.25673 0,0.0745 0.0414,0.3147 -0.0994,0.24017 -0.33127,0.24017 -0.2236,0 -0.39752,-0.16563 l -0.0911,-0.13251 q -0.0249,-0.0662 -0.0414,-0.0911 -0.008,-0.0248 -0.0166,-0.058 -0.058,-0.16563 -0.0911,-0.20704 -0.0497,-0.0663 -0.0497,-0.0994 0,-0.0331 0,-0.0828 -0.0166,-0.14079 -0.0414,-0.24017 -0.0414,-0.0414 -0.0414,-0.28158 0.0166,-0.43892 0,-0.50518 0.0248,-0.0248 0.008,-0.3147 l 0.0248,-0.1822 q 0,-0.0331 0.0331,-0.24845 -0.0166,-0.0331 -0.008,-0.17392 0.008,-0.14907 0.0248,-0.20704 0.0166,-0.0994 0.0166,-0.24845 z"
             style="font-style:normal;font-variant:normal;font-weight:normal;font-stretch:normal;font-family:'Caveat Brush';-inkscape-font-specification:'Caveat Brush';fill:#008080;stroke-width:0.20704219"
             id="path2270" />
          <path
             d="m 456.76029,526.98454 q 0.008,-0.0249 0.0331,-0.28986 -0.0166,-0.0248 -0.0414,-0.1822 -0.0663,-0.13251 -0.17392,-0.19876 -0.1325,-0.058 -0.15735,-0.058 -0.0745,0.0248 -0.10766,0.058 -0.0249,0.0249 -0.14079,0.23189 -0.10766,0.20704 -0.1822,0.68738 -0.0663,0.48034 -0.0663,0.69566 0,0.21532 0.0166,0.53003 0.0166,0.30642 0.13251,0.28986 0.10766,-0.0166 0.29814,-0.59629 0.008,-0.0414 0.058,-0.14907 z m 0.96896,-0.33955 q 0,0.43893 0.0911,0.80332 0.0414,0.3644 0.14907,0.77848 0.0248,0.16563 0.0166,0.16563 0.20704,0.4555 0.23189,0.54659 0.0248,0.0828 -0.008,0.14079 v -0.008 q -0.0248,0.0745 -0.15735,0.13251 -0.12422,0.0662 -0.2236,0.0828 -0.31471,0.0994 -0.37268,-0.24017 -0.0331,-0.0249 -0.0994,-0.0994 -0.058,-0.0828 -0.0662,-0.13251 -0.008,-0.058 -0.058,-0.10766 -0.0166,-0.0414 -0.0745,-0.10766 -0.058,-0.0663 -0.0662,-0.13251 l -0.0249,-0.22361 -0.0166,-0.008 q -0.13251,0.2733 -0.17392,0.38096 -0.0994,0.28158 -0.34783,0.64597 -0.28158,0.3147 -0.68738,0.1822 -0.14907,-0.008 -0.24017,-0.0911 -0.0828,-0.0828 -0.11594,-0.0911 -0.0497,-0.0166 -0.14079,-0.12422 -0.14907,-0.19877 -0.1822,-0.588 v -0.21533 q 0.0249,-0.0414 0,-0.39752 v -0.0497 q -0.0497,-0.24845 -0.0497,-0.29814 0,-0.0497 0.0166,-0.13251 0.0166,-0.0828 0.008,-0.0994 -0.008,-0.0248 -0.008,-0.0745 v -0.12423 l 0.0414,-0.44721 q 0.0911,-0.28986 0.19876,-0.52174 0.0331,-0.14079 0.12422,-0.22361 0.20704,-0.22361 0.22361,-0.25673 0.058,-0.12423 0.43064,-0.19876 l 0.14079,0.008 q 0.0828,0 0.14907,0.0248 0.0663,0.0166 0.0911,0.0166 0.11595,0.058 0.19048,0.058 0.0745,0 0.24845,0.11594 0.0497,0.008 0.24845,0.14079 0.21533,0.14079 0.24845,0.15735 l 0.21533,0.0745 q 0.0911,0.0745 0.0911,0.0828 0,0.008 -0.0414,0.45549 z"
             style="font-style:normal;font-variant:normal;font-weight:normal;font-stretch:normal;font-family:'Caveat Brush';-inkscape-font-specification:'Caveat Brush';fill:#008080;stroke-width:0.20704219"
             id="path2272" />
          <path
             d="m 458.8408,528.32617 q 0,-0.0331 0.0166,-0.24845 -0.0663,-0.0994 -0.0663,-0.44721 -0.008,-0.88614 -0.008,-0.90271 0.008,-0.0166 -0.0166,-0.058 -0.0249,-0.0497 -0.0249,-0.0994 v -0.0911 q -0.0331,-0.27329 0.0331,-0.41408 0.0166,-0.0828 0.0911,-0.12423 0.058,-0.0828 0.16563,-0.0828 0.10766,0 0.1822,0.0248 0.058,-0.0248 0.10766,0.0663 0.0994,0.0414 0.10766,0.0414 l 0.0414,0.0331 q 0.0663,0 0.0828,0.0249 0.0248,0.0166 0.0331,0.0994 l 0.0745,0.7205 v 0.14079 q 0.0166,0.0994 0.0166,0.15735 l 0.008,0.38924 0.0331,0.008 q 0.0497,-0.19877 0.10766,-0.33127 0.0663,-0.14079 0.0828,-0.20704 0.008,-0.0663 0.058,-0.12423 0.0497,-0.0994 0.0497,-0.14079 0,-0.0414 0.0663,-0.10766 0.0745,-0.1822 0.14079,-0.26501 l 0.0248,-0.0663 q 0.0331,-0.0497 0.0497,-0.0828 0.0911,-0.0745 0.13251,-0.13251 l 0.0663,-0.0497 q 0.0166,0 0.0331,-0.0414 0.0166,-0.0497 0.21532,-0.058 0.15735,-0.0249 0.26502,0 0.0745,0 0.0911,0.008 l 0.0497,0.0497 0.0663,0.0166 q 0.14079,0.0745 0.18219,0.35612 0,0.56315 0.0414,0.74535 0.058,0.47205 0.19048,0.84473 0.14079,0.37268 0.2733,0.4969 0.17391,0.22361 0.0662,0.47206 -0.0745,0.12422 -0.19048,0.1325 -0.11594,0.008 -0.16563,-0.008 -0.0662,0 -0.10766,-0.0248 -0.0911,0.0248 -0.15736,-0.0414 -0.0745,0 -0.11594,-0.0745 -0.28986,-0.38095 -0.33955,-0.47205 -0.0414,-0.0911 -0.0662,-0.12423 -0.0166,-0.0331 -0.0249,-0.058 -0.008,-0.0248 -0.0248,-0.0745 -0.0166,-0.0745 -0.0663,-0.1325 -0.0414,-0.0663 -0.0414,-0.0994 -0.0249,-0.0414 -0.0331,-0.13251 -0.0497,-0.0331 -0.0497,-0.0828 -0.0414,-0.0248 -0.058,-0.14907 l -0.0331,-0.21532 -0.0166,-0.008 q -0.41409,0.52174 -0.47206,1.18428 -0.0166,0.16563 -0.0331,0.21532 -0.0414,0.0663 0.0331,0.20705 v 0.0497 q 0,0.0331 -0.0911,0.12422 -0.0994,0.008 -0.11594,0.008 h -0.0911 q -0.0166,0 -0.0662,0.0249 -0.0497,0 -0.0828,0.0166 -0.0331,0.0166 -0.0911,-0.008 -0.14907,-0.008 -0.17391,-0.0249 -0.0248,-0.008 -0.0745,-0.0248 -0.0497,-0.008 -0.0828,-0.0497 -0.0414,0 -0.058,-0.0497 -0.21532,-0.21533 -0.21532,-0.3644 v -0.058 l -0.008,-0.0663 q 0.0166,-0.13251 -0.0166,-0.24017 z"
             style="font-style:normal;font-variant:normal;font-weight:normal;font-stretch:normal;font-family:'Caveat Brush';-inkscape-font-specification:'Caveat Brush';fill:#008080;stroke-width:0.20704219"
             id="path2274" />
          <path
             d="m 463.53083,524.45862 h 0.0248 q 0.28986,0.0166 0.37268,0.17392 0.0911,0.14907 0.0662,0.28986 -0.0166,0.14079 -0.2236,0.34783 -0.19877,0.20704 -0.3644,0.19876 -0.0497,0 -0.19876,-0.0497 -0.14079,-0.0497 -0.14907,-0.058 -0.008,-0.0331 -0.0497,-0.0497 -0.21532,-0.0828 -0.24017,-0.42237 0,-0.0331 0.0497,-0.0497 -0.0331,0 -0.008,-0.0994 0.058,-0.1822 0.25673,-0.24017 0.25673,-0.0497 0.46378,-0.0414 z m -0.0166,2.09527 -0.14079,1.38304 q 0,0.0497 0,0.0994 0,0.0414 0.008,0.0745 -0.008,0.0331 -0.008,0.0828 v 0.59628 q 0.0331,0.28158 0,0.33127 -0.0497,0.0166 -0.11594,0.0497 -0.0662,0.0414 -0.25673,0.0166 -0.1822,-0.0166 -0.26502,-0.058 l -0.0994,-0.0248 q -0.0828,0 -0.10766,-0.0745 -0.10766,-0.0663 -0.11594,-0.17391 -0.0249,-0.0414 0.058,-0.11595 -0.008,-0.0414 -0.0331,-0.11594 -0.0248,-0.0828 -0.0166,-0.14907 0.0248,-0.0414 -0.0248,-0.12422 0,-0.0911 0.0248,-0.20705 0.0331,-0.0331 0.0166,-0.24017 0.058,-0.0828 0.058,-0.23188 -0.0331,-0.13251 0.0248,-0.26502 0.058,-0.1325 0.0662,-0.26501 0.0166,-0.20704 0.0745,-0.4058 0,-0.0828 0.0745,-0.26502 0.0828,-0.18219 0.10767,-0.21532 l 0.1325,-0.13251 0.14907,-0.058 h 0.008 q 0.0994,-0.0331 0.19876,0.008 0.24016,0.0911 0.28986,0.14079 -0.0331,0.0331 -0.0414,0.0994 -0.008,0.0662 -0.0166,0.11594 -0.0331,0.0414 -0.0497,0.12423 z"
             style="font-style:normal;font-variant:normal;font-weight:normal;font-stretch:normal;font-family:'Caveat Brush';-inkscape-font-specification:'Caveat Brush';fill:#008080;stroke-width:0.20704219"
             id="path2276" />
        </g>
      </g>
    </g>
    <rect
       style="opacity:1;fill:#008080;fill-opacity:1;stroke:none;stroke-width:1.14530313;stroke-miterlimit:4;stroke-dasharray:2.29060629, 1.14530314;stroke-dashoffset:0"
       id="rect2326"
       width="79.375"
       height="31.75"
       x="118.30655"
       y="110.22874" />
    <g
       transform="matrix(0.95811518,0,0,0.95811518,-281.33669,-383.6214)"
       id="g2352"
       style="fill:#ffffff">
      <g
         id="g2374"
         transform="translate(-1.7372519,-2.4054257)">
        <circle
           r="12.76212"
           cy="534.41364"
           cx="460.27371"
           id="path2370"
           style="opacity:1;fill:#ffffff;fill-opacity:1;stroke:none;stroke-width:1.07909608;stroke-miterlimit:4;stroke-dasharray:2.15819213, 1.07909606;stroke-dashoffset:0" />
        <path
           style="fill:#008080;fill-opacity:1;stroke:none;stroke-width:1.88600504;stroke-miterlimit:4;stroke-dasharray:none;stroke-dashoffset:0"
           d="m 460.27341,523.28988 c -6.1626,0 -11.12346,4.96148 -11.12346,11.12406 0,6.1626 4.96086,11.12346 11.12346,11.12346 6.16258,0 11.12406,-4.96086 11.12406,-11.12346 0,-6.16258 -4.96148,-11.12406 -11.12406,-11.12406 z m 2.64735,5.36638 4.132,9.02402 -13.5593,-6.25898 z m -5.98655,4.88663 7.05,3.34156 -5.12141,3.13185 -0.91111,-2.61087 -0.90337,0.16216 -0.0658,-2.30914 z"
           id="path2336"
           inkscape:connector-curvature="0" />
      </g>
    </g>
    <rect
       y="110.22874"
       x="16.630953"
       height="31.75"
       width="79.375"
       id="rect2376"
       style="opacity:1;fill:#4d4d4d;fill-opacity:1;stroke:none;stroke-width:1.14530313;stroke-miterlimit:4;stroke-dasharray:2.29060629, 1.14530314;stroke-dashoffset:0" />
    <g
       style="fill:#ffffff"
       id="g2384"
       transform="matrix(0.95811518,0,0,0.95811518,-383.01228,-383.6214)">
      <g
         transform="translate(-1.7372519,-2.4054257)"
         id="g2382">
        <circle
           style="opacity:1;fill:#ffffff;fill-opacity:1;stroke:none;stroke-width:1.07909608;stroke-miterlimit:4;stroke-dasharray:2.15819213, 1.07909606;stroke-dashoffset:0"
           id="circle2378"
           cx="460.27371"
           cy="534.41364"
           r="12.76212" />
        <path
           inkscape:connector-curvature="0"
           id="path2380"
           d="m 460.27341,523.28988 c -6.1626,0 -11.12346,4.96148 -11.12346,11.12406 0,6.1626 4.96086,11.12346 11.12346,11.12346 6.16258,0 11.12406,-4.96086 11.12406,-11.12346 0,-6.16258 -4.96148,-11.12406 -11.12406,-11.12406 z m 2.64735,5.36638 4.132,9.02402 -13.5593,-6.25898 z m -5.98655,4.88663 7.05,3.34156 -5.12141,3.13185 -0.91111,-2.61087 -0.90337,0.16216 -0.0658,-2.30914 z"
           style="fill:#008080;fill-opacity:1;stroke:none;stroke-width:1.88600504;stroke-miterlimit:4;stroke-dasharray:none;stroke-dashoffset:0" />
      </g>
    </g>
  </g>
</svg>
