<?xml version="1.0" encoding="UTF-8" standalone="no"?>
<!-- Created with Inkscape (http://www.inkscape.org/) -->

<svg
   xmlns:dc="http://purl.org/dc/elements/1.1/"
   xmlns:cc="http://creativecommons.org/ns#"
   xmlns:rdf="http://www.w3.org/1999/02/22-rdf-syntax-ns#"
   xmlns:svg="http://www.w3.org/2000/svg"
   xmlns="http://www.w3.org/2000/svg"
   xmlns:sodipodi="http://sodipodi.sourceforge.net/DTD/sodipodi-0.dtd"
   xmlns:inkscape="http://www.inkscape.org/namespaces/inkscape"
   width="1000"
   height="1000"
   viewBox="0 0 999.99998 1000"
   version="1.1"
   id="svg837"
   inkscape:version="0.92.4 (unknown)"
   sodipodi:docname="highligh-icon.svg">
  <defs
     id="defs831" />
  <sodipodi:namedview
     id="base"
     pagecolor="#ffffff"
     bordercolor="#666666"
     borderopacity="1.0"
     inkscape:pageopacity="0.0"
     inkscape:pageshadow="2"
     inkscape:zoom="0.21002591"
     inkscape:cx="2608.5551"
     inkscape:cy="87.602728"
     inkscape:document-units="px"
     inkscape:current-layer="layer1"
     showgrid="false"
     units="px"
     inkscape:window-width="1920"
     inkscape:window-height="1051"
     inkscape:window-x="1366"
     inkscape:window-y="0"
     inkscape:window-maximized="1" />
  <metadata
     id="metadata834">
    <rdf:RDF>
      <cc:Work
         rdf:about="">
        <dc:format>image/svg+xml</dc:format>
        <dc:type
           rdf:resource="http://purl.org/dc/dcmitype/StillImage" />
        <dc:title></dc:title>
      </cc:Work>
    </rdf:RDF>
  </metadata>
  <g
     inkscape:label="Layer 1"
     inkscape:groupmode="layer"
     id="layer1"
     transform="translate(0,-122.51962)">
    <rect
       style="opacity:1;fill:#008080;fill-opacity:1;stroke:none;stroke-width:3.74515653;stroke-linecap:round;stroke-linejoin:round;stroke-miterlimit:4;stroke-dasharray:none;stroke-dashoffset:0;stroke-opacity:1;paint-order:stroke fill markers"
       id="rect1393"
       width="1000"
       height="1000"
       x="-5.0501399"
       y="127.56973"
       rx="0"
       ry="0"
       inkscape:export-filename="/home/dian/events-2019.png"
       inkscape:export-xdpi="96"
       inkscape:export-ydpi="96" />
    <g
       id="g1413"
       transform="translate(21.883962,12.609551)">
      <path
         style="fill:#ffffff;stroke-width:0.36670923"
         inkscape:connector-curvature="0"
         d="M 221.59997,862.10396 H 737.92654 V 486.59372 H 221.59997 Z M 362.41631,416.18555 V 310.5733 q 0,-5.13393 -3.30038,-8.43431 -3.30038,-3.30039 -8.43431,-3.30039 h -23.46939 q -5.13393,0 -8.43432,3.30039 -3.30038,3.30038 -3.30038,8.43431 v 105.61225 q 0,5.13393 3.30038,8.43431 3.30039,3.30039 8.43432,3.30039 h 23.46939 q 5.13393,0 8.43431,-3.30039 3.30038,-3.30038 3.30038,-8.43431 z m 281.63267,0 V 310.5733 q 0,-5.13393 -3.30038,-8.43431 -3.30038,-3.30039 -8.43431,-3.30039 H 608.8449 q -5.13393,0 -8.43431,3.30039 -3.30039,3.30038 -3.30039,8.43431 v 105.61225 q 0,5.13393 3.30039,8.43431 3.30038,3.30039 8.43431,3.30039 h 23.46939 q 5.13393,0 8.43431,-3.30039 3.30038,-3.30038 3.30038,-8.43431 z m 140.81634,-23.46939 v 469.3878 q 0,19.0689 -13.93495,33.0038 -13.93495,13.935 -33.00383,13.935 H 221.59997 q -19.06887,0 -33.00383,-13.935 -13.93495,-13.9349 -13.93495,-33.0038 v -469.3878 q 0,-19.06888 13.93495,-33.00383 13.93496,-13.93495 33.00383,-13.93495 h 46.93878 V 310.5733 q 0,-24.20281 17.23534,-41.43815 17.23533,-17.23533 41.43814,-17.23533 h 23.46939 q 24.20281,0 41.43814,17.23533 17.23533,17.23534 17.23533,41.43815 v 35.20408 H 550.17142 V 310.5733 q 0,-24.20281 17.23534,-41.43815 17.23533,-17.23533 41.43814,-17.23533 h 23.46939 q 24.20281,0 41.43814,17.23533 17.23533,17.23534 17.23533,41.43815 v 35.20408 h 46.93878 q 19.06888,0 33.00383,13.93495 13.93495,13.93495 13.93495,33.00383 z"
         id="path1395" />
      <text
         id="text1408"
         y="729.44684"
         x="303.64908"
         style="font-style:normal;font-weight:normal;font-size:152.69567871px;line-height:1.25;font-family:sans-serif;letter-spacing:0px;word-spacing:0px;fill:#000000;fill-opacity:1;stroke:none;stroke-width:3.81739211"
         xml:space="preserve"><tspan
           style="font-style:normal;font-variant:normal;font-weight:bold;font-stretch:normal;font-family:Lato;-inkscape-font-specification:Lato;fill:#ffffff;stroke-width:3.81739211"
           y="729.44684"
           x="303.64908"
           id="tspan1406"
           sodipodi:role="line">2019</tspan></text>
    </g>
    <rect
       y="127.56973"
       x="1102.6139"
       height="1000"
       width="1000"
       id="rect1434"
       style="opacity:1;fill:#008080;fill-opacity:1;stroke:none;stroke-width:3.74515653;stroke-linecap:round;stroke-linejoin:round;stroke-miterlimit:4;stroke-dasharray:none;stroke-dashoffset:0;stroke-opacity:1;paint-order:stroke fill markers"
       inkscape:export-filename="/home/dian/events-2018.png"
       inkscape:export-xdpi="96"
       inkscape:export-ydpi="96" />
    <g
       transform="translate(1129.5479,12.609551)"
       id="g1442">
      <path
         id="path1436"
         d="M 221.59997,862.10396 H 737.92654 V 486.59372 H 221.59997 Z M 362.41631,416.18555 V 310.5733 q 0,-5.13393 -3.30038,-8.43431 -3.30038,-3.30039 -8.43431,-3.30039 h -23.46939 q -5.13393,0 -8.43432,3.30039 -3.30038,3.30038 -3.30038,8.43431 v 105.61225 q 0,5.13393 3.30038,8.43431 3.30039,3.30039 8.43432,3.30039 h 23.46939 q 5.13393,0 8.43431,-3.30039 3.30038,-3.30038 3.30038,-8.43431 z m 281.63267,0 V 310.5733 q 0,-5.13393 -3.30038,-8.43431 -3.30038,-3.30039 -8.43431,-3.30039 H 608.8449 q -5.13393,0 -8.43431,3.30039 -3.30039,3.30038 -3.30039,8.43431 v 105.61225 q 0,5.13393 3.30039,8.43431 3.30038,3.30039 8.43431,3.30039 h 23.46939 q 5.13393,0 8.43431,-3.30039 3.30038,-3.30038 3.30038,-8.43431 z m 140.81634,-23.46939 v 469.3878 q 0,19.0689 -13.93495,33.0038 -13.93495,13.935 -33.00383,13.935 H 221.59997 q -19.06887,0 -33.00383,-13.935 -13.93495,-13.9349 -13.93495,-33.0038 v -469.3878 q 0,-19.06888 13.93495,-33.00383 13.93496,-13.93495 33.00383,-13.93495 h 46.93878 V 310.5733 q 0,-24.20281 17.23534,-41.43815 17.23533,-17.23533 41.43814,-17.23533 h 23.46939 q 24.20281,0 41.43814,17.23533 17.23533,17.23534 17.23533,41.43815 v 35.20408 H 550.17142 V 310.5733 q 0,-24.20281 17.23534,-41.43815 17.23533,-17.23533 41.43814,-17.23533 h 23.46939 q 24.20281,0 41.43814,17.23533 17.23533,17.23534 17.23533,41.43815 v 35.20408 h 46.93878 q 19.06888,0 33.00383,13.93495 13.93495,13.93495 13.93495,33.00383 z"
         inkscape:connector-curvature="0"
         style="fill:#ffffff;stroke-width:0.36670923" />
      <text
         xml:space="preserve"
         style="font-style:normal;font-weight:normal;font-size:152.69567871px;line-height:1.25;font-family:sans-serif;letter-spacing:0px;word-spacing:0px;fill:#000000;fill-opacity:1;stroke:none;stroke-width:3.81739211"
         x="303.64908"
         y="729.44684"
         id="text1440"><tspan
           sodipodi:role="line"
           id="tspan1438"
           x="303.64908"
           y="729.44684"
           style="font-style:normal;font-variant:normal;font-weight:bold;font-stretch:normal;font-family:Lato;-inkscape-font-specification:Lato;fill:#ffffff;stroke-width:3.81739211">2018</tspan></text>
    </g>
    <rect
       style="opacity:1;fill:#008080;fill-opacity:1;stroke:none;stroke-width:3.74515653;stroke-linecap:round;stroke-linejoin:round;stroke-miterlimit:4;stroke-dasharray:none;stroke-dashoffset:0;stroke-opacity:1;paint-order:stroke fill markers"
       id="rect1444"
       width="1000"
       height="1000"
       x="2240.5688"
       y="127.56977"
       inkscape:export-filename="/home/dian/books.png"
       inkscape:export-xdpi="96"
       inkscape:export-ydpi="96" />
    <path
       id="path1454"
       d="m 3016.8451,484.44236 q 13.6964,19.51738 6.1633,44.1709 l -94.1627,310.22356 q -6.5058,21.9142 -26.1944,36.8091 -19.6886,14.8948 -41.9452,14.8948 h -316.0446 q -26.3655,0 -50.8479,-18.3189 -24.4823,-18.319 -34.0698,-45.027 -8.2178,-22.9414 -0.6848,-43.48603 0,-1.36964 1.0272,-9.24508 1.0273,-7.87543 1.3697,-12.66917 0.3424,-2.73928 -1.0272,-7.36182 -1.3697,-4.62253 -1.0273,-6.67699 0.6848,-3.76651 2.7393,-7.19062 2.0545,-3.4241 5.6498,-8.04663 3.5953,-4.62254 5.6497,-8.04664 7.8755,-13.01158 15.4085,-31.33052 7.533,-18.31894 10.2723,-31.33053 1.0272,-3.4241 0.1712,-10.2723 -0.856,-6.8482 -0.1712,-9.58748 1.0272,-3.76651 5.821,-9.58749 4.7937,-5.82097 5.8209,-7.87543 7.1906,-12.32676 14.3813,-31.50173 7.1906,-19.17496 8.5602,-30.81691 0.3424,-3.08169 -0.856,-10.95712 -1.1984,-7.87543 0.1712,-9.58748 1.3696,-4.45133 7.533,-10.44351 6.1634,-5.99218 7.533,-7.70423 6.5058,-8.90266 14.5525,-28.93365 8.0466,-20.03099 9.4162,-33.04257 0.3425,-2.73928 -1.0272,-8.73146 -1.3696,-5.99218 -0.6848,-9.07387 0.6848,-2.73928 3.0817,-6.16338 2.3969,-3.4241 6.1634,-7.87543 3.7665,-4.45133 5.8209,-7.19061 2.7393,-4.10892 5.6498,-10.44351 2.9105,-6.33459 5.1362,-11.98435 2.2256,-5.64977 5.4785,-12.32677 3.2529,-6.677 6.677,-10.95712 3.4241,-4.28013 9.0739,-8.04664 5.6497,-3.76651 12.3267,-3.93771 6.677,-0.17121 16.2645,1.88325 l -0.3424,1.02723 q 13.0116,-3.08169 17.4629,-3.08169 h 260.5741 q 25.3384,0 39.0348,19.17497 13.6964,19.17496 6.1633,44.51331 l -93.8203,310.22354 q -12.3268,40.74681 -24.4823,52.55995 -12.1556,11.81312 -43.9997,11.81312 h -297.5544 q -9.2451,0 -13.0116,5.1362 -3.7665,5.4785 -0.3424,14.7236 8.2178,23.9687 49.307,23.9687 h 316.0446 q 9.9299,0 19.1749,-5.3073 9.2451,-5.3074 11.9844,-14.2101 l 102.723,-337.95871 q 2.3969,-7.53303 1.7121,-19.51738 13.0115,5.13615 20.2022,14.72363 z m -364.3244,0.68482 q -1.3696,4.45134 0.6848,7.70423 2.0545,3.2529 6.8482,3.2529 h 208.1854 q 4.4513,0 8.7314,-3.2529 4.2802,-3.25289 5.6498,-7.70423 l 7.1906,-21.91424 q 1.3697,-4.45133 -0.6848,-7.70423 -2.0545,-3.25289 -6.8482,-3.25289 h -208.1853 q -4.4514,0 -8.7315,3.25289 -4.2801,3.2529 -5.6498,7.70423 z m -28.42,87.65699 q -1.3697,4.45133 0.6848,7.70422 2.0545,3.2529 6.8482,3.2529 h 208.1853 q 4.4514,0 8.7315,-3.2529 4.2801,-3.25289 5.6498,-7.70422 l 7.1906,-21.91425 q 1.3696,-4.45133 -0.6848,-7.70423 -2.0545,-3.25289 -6.8482,-3.25289 h -208.1854 q -4.4513,0 -8.7314,3.25289 -4.2802,3.2529 -5.6498,7.70423 z"
       inkscape:connector-curvature="0"
       style="fill:#ffffff;stroke-width:0.34241009" />
    <rect
       y="127.56973"
       x="3464.2275"
       height="1000"
       width="1000"
       id="rect1465"
       style="opacity:1;fill:#008080;fill-opacity:1;stroke:none;stroke-width:3.74515653;stroke-linecap:round;stroke-linejoin:round;stroke-miterlimit:4;stroke-dasharray:none;stroke-dashoffset:0;stroke-opacity:1;paint-order:stroke fill markers"
       rx="0"
       ry="0"
       inkscape:export-filename="/home/dian/tutorial.png"
       inkscape:export-xdpi="96"
       inkscape:export-ydpi="96" />
    <rect
       style="opacity:1;fill:#008080;fill-opacity:1;stroke:none;stroke-width:3.74515653;stroke-linecap:round;stroke-linejoin:round;stroke-miterlimit:4;stroke-dasharray:none;stroke-dashoffset:0;stroke-opacity:1;paint-order:stroke fill markers"
       id="rect1502"
       width="1000"
       height="1000"
       x="4654.5571"
       y="127.56973"
       inkscape:export-filename="/home/dian/video.png"
       inkscape:export-xdpi="96"
       inkscape:export-ydpi="96" />
    <path
       id="path1506"
       d="m 5272.8756,627.56974 q 0,-11.40048 -9.2437,-16.63853 L 5105.874,512.33247 q -9.5518,-6.16242 -20.0279,-0.61624 -10.168,5.54618 -10.168,17.25478 v 197.19746 q 0,11.7086 10.168,17.25477 4.9299,2.46497 9.5518,2.46497 6.1624,0 10.4761,-3.08121 l 157.7579,-98.59872 q 9.2437,-5.23806 9.2437,-16.63854 z m 157.758,0 q 0,29.57962 -0.3082,46.21816 -0.3081,16.63853 -2.619,42.05852 -2.3109,25.41999 -6.9327,45.44784 -4.93,22.49283 -21.2604,37.89889 -16.3304,15.40605 -38.207,17.87102 -68.4029,7.70302 -206.7492,7.70302 -138.3463,0 -206.7492,-7.70302 -21.8766,-2.46497 -38.3611,-17.87102 -16.4845,-15.40606 -21.4144,-37.89889 -4.3137,-20.02785 -6.6246,-45.44784 -2.3109,-25.41999 -2.619,-42.05852 -0.3082,-16.63854 -0.3082,-46.21816 0,-29.57962 0.3082,-46.21815 0.3081,-16.63854 2.619,-42.05853 2.3109,-25.41998 6.9327,-45.44785 4.93,-22.49284 21.2604,-37.89889 16.3304,-15.40605 38.207,-17.87102 68.4029,-7.70303 206.7492,-7.70303 138.3463,0 206.7492,7.70303 21.8766,2.46497 38.3611,17.87102 16.4845,15.40605 21.4144,37.89889 4.3137,20.02787 6.6246,45.44785 2.3109,25.41999 2.619,42.05853 0.3082,16.63853 0.3082,46.21815 z"
       inkscape:connector-curvature="0"
       style="fill:#ffffff;stroke-width:0.30812106" />
    <path
       id="path1523"
       d="m 3964.2275,527.03671 h -120.6396 v 120.63962 h 120.6396 z m 40.2132,201.06609 v 40.2132 h -201.0661 v -40.2132 z m 0,-241.2793 V 687.88954 H 3803.3746 V 486.8235 Z m 201.066,241.2793 v 40.2132 h -160.8528 v -40.2132 z m 0,-80.42647 v 40.21321 h -160.8528 v -40.21321 z m 0,-80.42641 v 40.21321 h -160.8528 v -40.21321 z m 0,-80.42642 v 40.21321 H 4044.6539 V 486.8235 Z M 3722.9482,788.4226 V 486.8235 h -40.2132 v 301.5991 q 0,8.1683 5.9692,14.1374 5.9691,5.9692 14.1374,5.9692 8.1683,0 14.1375,-5.9692 5.9691,-5.9691 5.9691,-14.1374 z m 522.7718,0 V 446.61029 H 3763.1614 V 788.4226 q 0,10.3674 -3.4558,20.1066 h 465.9078 q 8.1683,0 14.1374,-5.9692 5.9692,-5.9691 5.9692,-14.1374 z m 40.2132,-382.02553 V 788.4226 q 0,25.1332 -17.5933,42.7265 -17.5933,17.5933 -42.7265,17.5933 h -522.7718 q -25.1332,0 -42.7265,-17.5933 -17.5933,-17.5933 -17.5933,-42.7265 V 446.61029 h 80.4264 v -40.21322 z"
       inkscape:connector-curvature="0"
       style="fill:#ffffff;stroke-width:0.31416571" />
  </g>
</svg>
