<?xml version="1.0" encoding="UTF-8" standalone="no"?>
<!-- Created with Inkscape (http://www.inkscape.org/) -->

<svg
   xmlns:dc="http://purl.org/dc/elements/1.1/"
   xmlns:cc="http://creativecommons.org/ns#"
   xmlns:rdf="http://www.w3.org/1999/02/22-rdf-syntax-ns#"
   xmlns:svg="http://www.w3.org/2000/svg"
   xmlns="http://www.w3.org/2000/svg"
   xmlns:xlink="http://www.w3.org/1999/xlink"
   xmlns:sodipodi="http://sodipodi.sourceforge.net/DTD/sodipodi-0.dtd"
   xmlns:inkscape="http://www.inkscape.org/namespaces/inkscape"
   width="8cm"
   height="4cm"
   viewBox="0 0 80 39.999999"
   version="1.1"
   id="svg62"
   inkscape:version="0.92.3 (2405546, 2018-03-11)"
   sodipodi:docname="sticker-petanikode-text.svg"
   inkscape:export-filename="/home/dian/cetak/sticker-petanikode-text-8x4.png"
   inkscape:export-xdpi="300"
   inkscape:export-ydpi="300">
  <defs
     id="defs56">
    <color-profile
       name="Artifex-PS-CMYK-Profile"
       xlink:href="/usr/share/color/icc/ghostscript/gray_to_k.icc"
       id="color-profile821" />
  </defs>
  <sodipodi:namedview
     id="base"
     pagecolor="#ffffff"
     bordercolor="#666666"
     borderopacity="1.0"
     inkscape:pageopacity="0.0"
     inkscape:pageshadow="2"
     inkscape:zoom="1.979899"
     inkscape:cx="154.32739"
     inkscape:cy="76.331111"
     inkscape:document-units="mm"
     inkscape:current-layer="layer1"
     showgrid="false"
     units="cm"
     inkscape:snap-others="false"
     inkscape:object-nodes="false"
     inkscape:snap-nodes="false"
     inkscape:window-width="1336"
     inkscape:window-height="739"
     inkscape:window-x="30"
     inkscape:window-y="0"
     inkscape:window-maximized="1" />
  <metadata
     id="metadata59">
    <rdf:RDF>
      <cc:Work
         rdf:about="">
        <dc:format>image/svg+xml</dc:format>
        <dc:type
           rdf:resource="http://purl.org/dc/dcmitype/StillImage" />
        <dc:title></dc:title>
      </cc:Work>
    </rdf:RDF>
  </metadata>
  <g
     inkscape:label="Layer 1"
     inkscape:groupmode="layer"
     id="layer1"
     transform="translate(0,-257.00002)">
    <g
       id="g831"
       transform="matrix(1.4555847,0,0,1.4555847,-3.1029356,-134.09719)">
      <path
         sodipodi:nodetypes="cccccaccccccccccccccccccccccccccccccccccccc"
         inkscape:connector-curvature="0"
         id="path96"
         d="m 5.3659443,294.53351 c 1.3490794,0.40169 3.7098281,0.0533 5.5586977,-0.60709 l -0.530486,-2.51069 2.635233,2.71114 c 1.669695,-0.80898 3.474534,-1.64826 4.443356,-3.51364 1.274268,1.99008 4.030194,3.28071 6.414469,3.17956 2.549251,-0.10815 4.735542,-1.32596 6.545728,-3.96823 0.740055,3.24883 2.744219,4.94949 5.771947,4.29456 0.753639,-0.19001 1.496475,-0.56655 1.947837,-0.89428 l 0.133633,0.80181 c 1.616333,0.10942 3.231754,0.0398 4.844261,-0.60136 l 0.100224,-2.60588 c 1.742714,2.58894 5.27132,3.55318 7.829795,2.77696 2.250277,-0.79278 3.654379,-1.93977 4.230744,-4.01309 -0.61028,-0.97703 -1.75288,-1.42173 -2.918717,-1.84321 0.587608,-0.0779 1.092282,-0.0867 1.930295,-0.37323 0.732918,-0.95235 1.203273,-2.30242 0.888196,-4.06439 -0.761002,-3.43446 -2.735982,-4.49169 -5.302197,-4.19804 -3.077937,0.33567 -4.670224,1.80966 -6.357435,4.39849 -0.158288,-2.59064 0.180942,-5.04808 0.300678,-7.51696 -2.186363,-0.11166 -4.365668,-0.26568 -6.68174,0.40091 -0.0084,-0.96977 0.08669,-1.97402 0.267271,-3.00678 1.90465,-3.8715 -4.282698,-3.03646 -2.282764,-0.26846 -1.015478,0.85811 -0.413902,0.32052 -1.258359,-0.2358 -0.658817,-0.0418 -1.329362,-0.11281 -1.804267,0.003 l -0.367496,0.46773 -0.334086,-0.66818 c -0.486156,-0.33503 -0.995445,-0.49657 -1.570211,-0.16704 l -0.467722,0.51784 c -1.448748,-0.58866 -2.349738,-1.16881 -3.708363,-0.55125 -0.291355,-0.3968 -0.680283,-0.42064 -1.135896,-0.53454 l 0.167044,-1.1693 c -0.470112,-1.0046 -1.545713,-1.01897 -1.971113,-0.66818 -0.586895,0.45547 -0.670129,1.15441 -0.935443,1.77066 l -1.503392,0.40091 c -1.052022,-0.58304 -1.906816,-0.25882 -2.739512,0.16704 -1.325309,-4.40587 -7.17048,-2.18842 -6.832077,-1.23612 0.187851,1.02645 0.505008,1.35458 1.219417,2.03793 l -0.05011,0.98555 c -0.789075,0.49222 -0.832692,1.02503 -0.451015,1.72055 -1.9772386,-0.63565 -4.0720489,-0.90203 -6.1472005,-0.90203 -0.7259031,6.56198 -0.516988,13.89529 0.1207798,19.48301 z"
         style="fill:#ffffff;stroke:#b3b3b3;stroke-width:0.1;stroke-linecap:butt;stroke-linejoin:miter;stroke-miterlimit:4;stroke-dasharray:none;stroke-opacity:1" />
      <g
         transform="matrix(1.3210123,0,0,1.3210123,-575.87046,-421.26058)"
         id="g4232"
         style="display:inline;opacity:1;fill:#008080;stroke:none">
        <text
           xml:space="preserve"
           style="font-style:normal;font-weight:normal;font-size:16.18058205px;line-height:1.25;font-family:sans-serif;letter-spacing:0px;word-spacing:0px;fill:#008080;fill-opacity:1;stroke:none;stroke-width:0.40451452"
           x="439.39209"
           y="540.20154"
           id="text4224"><tspan
             sodipodi:role="line"
             id="tspan4222"
             x="439.39209"
             y="540.20154"
             style="font-style:normal;font-variant:normal;font-weight:normal;font-stretch:normal;font-family:Atma;-inkscape-font-specification:Atma;fill:#008080;stroke:none;stroke-width:0.40451452"><tspan
               id="tspan4220"
               style="font-weight:bold;fill:#008080;stroke:none;stroke-width:0.40451452">k   de</tspan></tspan></text>
        <path
           inkscape:connector-curvature="0"
           id="path4226"
           d="m 453.81687,530.32254 c -2.8122,0 -5.07601,2.26409 -5.07601,5.07628 0,2.8122 2.26381,5.07601 5.07601,5.07601 2.81219,0 5.07628,-2.26381 5.07628,-5.07601 0,-2.81219 -2.26409,-5.07628 -5.07628,-5.07628 z m 1.20807,2.44886 1.88557,4.11796 -6.18756,-2.85618 z m -2.73186,2.22993 3.21715,1.52487 -2.33707,1.42917 -0.41577,-1.19143 -0.41224,0.074 -0.03,-1.05374 z"
           style="fill:#008080;fill-opacity:1;stroke:none;stroke-width:0.86064708;stroke-miterlimit:4;stroke-dasharray:none;stroke-dashoffset:0" />
        <text
           id="text4230"
           y="529.14606"
           x="444.74136"
           style="font-style:normal;font-weight:normal;font-size:8.28168583px;line-height:1.25;font-family:sans-serif;letter-spacing:0px;word-spacing:0px;fill:#008080;fill-opacity:1;stroke:none;stroke-width:0.20704219"
           xml:space="preserve"><tspan
             style="font-style:normal;font-variant:normal;font-weight:normal;font-stretch:normal;font-family:'Caveat Brush';-inkscape-font-specification:'Caveat Brush';fill:#008080;stroke:none;stroke-width:0.20704219"
             y="529.14606"
             x="444.74136"
             id="tspan4228"
             sodipodi:role="line">Petani</tspan></text>
      </g>
    </g>
  </g>
</svg>
